<?xml version="1.0" encoding="utf-8"?>
<!-- Generator: Adobe Illustrator 19.2.1, SVG Export Plug-In . SVG Version: 6.00 Build 0)  -->
<svg version="1.1" id="Layer_1" xmlns="http://www.w3.org/2000/svg" xmlns:xlink="http://www.w3.org/1999/xlink" x="0px" y="0px"
     viewBox="0 0 308.01 64" style="enable-background:new 0 0 308.01 64;" xml:space="preserve">
<style type="text/css">
    .st0{fill-rule:evenodd;clip-rule:evenodd;fill:#808080;}
    .st1{fill:#808080;}
    .st2{fill:#898989;}
</style>
<g>
    <path class="st0" d="M78.18,28.61c-1.22-1.51-2.03-2.97-2.03-4.39c0-1.22,0.16-1.83,0.53-2.32c0.28,1.38,0.61,2.32,1.14,3.17
        c0.45,0.69,1.22,1.95,1.34,2.89c0.2-1.99,0.73-3.42,2.32-5.08c0,2.07,0,3.21-0.81,4.68c-0.53,0.98-0.65,1.91-0.65,3.34h-0.12
        L78.18,28.61L78.18,28.61z M80.38,34.47c-2.89-1.3-3.95-2.85-3.95-6.51h0.12c1.06,2.28,2.97,4.76,4.8,5.37
        c-0.57-2.2-0.45-3.46,0.12-5.37c0.98,1.38,1.14,2.64,1.14,4.31c0,1.22,0,2.6,0.85,3.42l-0.12,0.12L80.38,34.47L80.38,34.47z
         M79.36,15.18l0.12,0.12c-0.65,2.28-0.89,4.15-0.45,6.55c0.77-1.83,2.44-2.97,3.7-3.62c-0.28,1.71-0.77,2.56-2.2,3.99
        c-0.81,0.81-1.5,1.59-1.83,2.85h-0.12c-0.77-2.69-1.18-3.86-1.18-5.49C77.41,17.95,78.18,16.28,79.36,15.18L79.36,15.18z
         M78.06,34.26l0.12-0.12c1.3,1.26,2.48,1.99,4.43,2.2c0.85,0.12,2.32,0.73,3.09,1.1c-1.3-1.14-1.83-3.34-1.83-5.17
        c0.94,0.81,2.2,2.2,2.44,3.42c0.12,0.65,0.94,1.91,1.95,2.44c-1.3,0.33-2.2,0.41-3.58,0.41C81.72,38.54,78.96,37.11,78.06,34.26
        L78.06,34.26z M80.01,17.5c0.29-1.67,0.57-2.72,1.06-3.54c0.73-1.26,1.67-2.52,2.93-3.05l0.12,0.12c-1.14,1.67-1.87,3.13-2.32,4.92
        c1.06-0.77,3.01-1.18,4.07-1.34c-0.53,0.89-1.59,1.71-3.25,2.48c-1.02,0.49-1.67,0.94-2.81,2.07l-0.08-0.12L80.01,17.5L80.01,17.5z
         M90.06,42.52c1.42-1.34,2.85-2.32,4.52-3.01c-3.17,0.16-4.76,1.54-7.69,1.54c-1.46,0-3.38-0.41-4.43-1.42l0.12-0.12
        c0.57,0.16,1.06,0.16,1.55,0.16c1.59,0,4.56-1.22,6.87-1.22c1.91,0,3.09,0.2,4.72,0.81c1.59-0.61,2.85-0.81,4.68-0.81
        c2.32,0,5.29,1.22,6.88,1.22c0.57,0,1.02,0,1.55-0.16l0.12,0.12c-1.06,1.02-2.97,1.42-4.43,1.42c-2.85,0-4.47-1.38-7.69-1.54
        c1.67,0.69,3.09,1.67,4.52,3.01h-1.18c-1.3-1.59-3.5-2.72-4.43-2.72c-0.89,0-3.17,1.14-4.72,2.72H90.06L90.06,42.52z M84.25,12.95
        c0.98-1.91,2.77-3.86,5.41-4.11c-1.1,1.54-2.16,2.56-3.54,3.58c0.85-0.24,1.63-0.45,2.28-0.45c0.53,0,1.14,0.12,1.67,0.33
        c-1.14,0.81-2.73,1.22-3.58,1.22c-0.81,0-2.07,0.32-2.93,0.57L84.25,12.95L84.25,12.95z M93.32,24.22
        c1.02,0.12,2.03,1.34,2.03,4.19c0,4.76-1.42,7.93-2.07,7.93c-1.14,0-8.1-2.77-8.1-10.58c0-2.07,0.41-2.44,1.06-2.32L93.32,24.22
        L93.32,24.22z M86.36,22.75c-0.41,0.04-0.53-0.24-0.53-0.41c0-0.45,2.81-7.04,10.05-7.04c7.24,0,10.05,6.59,10.05,7.04
        c0,0.16-0.12,0.45-0.53,0.41l-9.11-1.42v-0.12c0.65-0.24,0.98-0.77,0.98-1.51c0-0.81-0.45-1.47-1.38-1.47s-1.38,0.65-1.38,1.47
        c0,0.73,0.33,1.26,0.98,1.51v0.12L86.36,22.75L86.36,22.75z M88.8,11.2h-0.41v-0.12l1.14-0.77c1.3-1.1,2.24-1.46,3.38-1.46
        c0.57,0,1.02,0.12,1.46,0.37v0.12c-1.3,0.2-2.52,0.53-3.78,1.18c1.55,0.24,2.12,0.41,3.46,1.26c-0.33,0.08-0.73,0.2-1.14,0.2
        C91.36,11.97,90.63,11.28,88.8,11.2L88.8,11.2z M98.97,10.51c-0.85,0-1.91,0.12-2.85,0.37V11c0.81,0.2,1.46,0.85,1.91,1.59
        c-1.5-0.28-3.05-1.02-3.99-2.2c0.81-0.28,1.87-0.73,2.89-0.73C97.59,9.65,98.44,9.77,98.97,10.51L98.97,10.51z M105.52,23.44
        c0.65-0.12,1.06,0.24,1.06,2.32c0,7.81-6.96,10.58-8.09,10.58c-0.65,0-2.07-3.17-2.07-7.93c0-2.85,1.02-4.07,2.03-4.19
        L105.52,23.44L105.52,23.44z M99.62,12.7c-0.41-0.16-0.65-0.77-0.89-1.38c1.38,0.24,2.32,0.85,2.72,2.07L99.62,12.7L99.62,12.7z
         M103.85,38.54h-0.49v-0.08c1.02-0.57,1.26-1.26,1.55-1.79c0.81-1.55,1.79-3.05,3.13-3.74c-0.29,1.22-0.69,3.54-2.32,4.68
        l0.12,0.12c2.93-0.65,5.25-1.67,7.73-3.7l0.12,0.12c-1.22,3.34-4.39,4.72-6.47,4.72C106.58,38.86,105.56,38.54,103.85,38.54
        L103.85,38.54z M104.18,9.65c1.55,0,3.01,0.65,3.58,2.11c-1.26-0.24-2.36-0.77-3.13-1.63L104.18,9.65L104.18,9.65z M109.18,12.83
        l0.12-0.12c-0.49-0.61-1.26-1.79-1.26-2.07c1.91,0.57,2.52,1.95,2.64,3.74c-2.28-0.49-3.7-1.14-4.39-2.52L109.18,12.83
        L109.18,12.83z M110.69,28.08c0.12,0.73,0.41,1.99,0.41,2.81c0,1.06-0.28,2.2-0.81,3.05l0.08,0.08c2.2-1.55,3.46-3.38,4.88-5.49
        l0.12,0.08c-0.41,3.21-1.79,5.86-6.87,7.32c0.53-1.06,0.53-2.2,0.53-3.01C109.02,31.13,109.43,29.75,110.69,28.08L110.69,28.08z
         M113.17,19.42c-2.03-1.06-3.5-2.6-4.56-4.68l0.12-0.12c0.57,0.28,2.89,1.42,3.17,1.95l0.12-0.12c-0.41-0.61-0.53-2.6-0.53-3.05
        c1.38,1.22,1.91,2.89,1.91,4.64C113.41,18.48,113.33,18.93,113.17,19.42L113.17,19.42z M113.41,24.66c-0.24-0.98-0.53-1.5-1.26-2.2
        c-0.53-0.69-1.18-2.24-1.46-3.86l0.12-0.12c0.16,0.41,0.57,0.81,1.55,1.67c0.41,0.41,0.94,1.22,0.98,1.87h0.12l0.73-4.64h0.12
        c0.37,0.85,0.65,1.91,0.65,2.77C114.96,21.37,114.1,23.69,113.41,24.66L113.41,24.66z M111.38,23.04c0.77,1.18,1.51,2.73,1.55,4.39
        h0.12c0.12-0.81,0.37-1.55,0.98-2.07c0.41-0.41,1.34-2.07,1.63-2.6h0.12c0.45,2.68-1.06,5.41-3.42,7.97
        c0.04-1.91-1.38-5.08-1.38-6.18C110.97,24.01,111.13,23.28,111.38,23.04L111.38,23.04z"/>
    <g>
        <path class="st1" d="M83.59,45.84v-0.28h3.56v0.28h-0.38c-0.4,0-0.7,0.17-0.91,0.5c-0.1,0.15-0.16,0.51-0.16,1.07v4.09
            c0,1.01-0.1,1.8-0.3,2.36c-0.2,0.56-0.6,1.04-1.18,1.44c-0.59,0.4-1.39,0.6-2.4,0.6c-1.1,0-1.94-0.19-2.51-0.57
            c-0.57-0.38-0.98-0.89-1.21-1.54c-0.16-0.44-0.24-1.27-0.24-2.49v-3.94c0-0.62-0.09-1.03-0.26-1.22
            c-0.17-0.19-0.45-0.29-0.83-0.29h-0.38v-0.28h4.37v0.28h-0.39c-0.42,0-0.71,0.13-0.89,0.39c-0.12,0.18-0.19,0.55-0.19,1.12v4.4
            c0,0.39,0.04,0.84,0.11,1.35c0.07,0.51,0.2,0.9,0.39,1.18c0.19,0.28,0.46,0.52,0.82,0.7c0.36,0.18,0.79,0.28,1.31,0.28
            c0.66,0,1.25-0.14,1.77-0.43c0.52-0.29,0.88-0.66,1.07-1.1c0.19-0.45,0.29-1.21,0.29-2.28v-4.09c0-0.63-0.07-1.03-0.21-1.18
            c-0.19-0.22-0.48-0.33-0.86-0.33H83.59z"/>
        <path class="st1" d="M87.12,45.56h2.74l6.18,7.58v-5.83c0-0.62-0.07-1.01-0.21-1.16c-0.18-0.21-0.47-0.31-0.87-0.31h-0.35v-0.28
            h3.52v0.28h-0.36c-0.43,0-0.73,0.13-0.91,0.39c-0.11,0.16-0.16,0.52-0.16,1.09v8.52h-0.27l-6.66-8.14v6.22
            c0,0.62,0.07,1.01,0.2,1.16c0.19,0.21,0.48,0.31,0.87,0.31h0.36v0.28h-3.52v-0.28h0.35c0.43,0,0.74-0.13,0.92-0.39
            c0.11-0.16,0.16-0.52,0.16-1.09v-7.02c-0.29-0.34-0.52-0.57-0.67-0.68c-0.15-0.11-0.37-0.21-0.67-0.31
            c-0.14-0.04-0.36-0.07-0.66-0.07V45.56z"/>
        <path class="st1" d="M101.53,46.12v3.98h2.22c0.58,0,0.96-0.09,1.15-0.26c0.26-0.23,0.4-0.63,0.43-1.21h0.28v3.52h-0.28
            c-0.07-0.49-0.14-0.81-0.21-0.95c-0.09-0.17-0.24-0.31-0.44-0.41c-0.2-0.1-0.52-0.15-0.94-0.15h-2.22v3.33
            c0,0.45,0.02,0.72,0.06,0.81c0.04,0.1,0.11,0.17,0.21,0.23c0.1,0.06,0.29,0.09,0.57,0.09h1.71c0.57,0,0.99-0.04,1.24-0.12
            c0.26-0.08,0.51-0.24,0.74-0.47c0.31-0.31,0.62-0.77,0.95-1.39h0.3l-0.87,2.53h-7.78v-0.28h0.36c0.24,0,0.46-0.06,0.68-0.17
            c0.16-0.08,0.27-0.2,0.32-0.36c0.06-0.16,0.09-0.49,0.09-0.98v-6.56c0-0.64-0.06-1.03-0.19-1.18c-0.18-0.2-0.48-0.3-0.89-0.3
            h-0.36v-0.28h7.79l0.1,2.22h-0.29c-0.1-0.53-0.22-0.9-0.35-1.1c-0.13-0.2-0.31-0.35-0.56-0.46c-0.2-0.07-0.55-0.11-1.05-0.11
            H101.53z"/>
        <path class="st1" d="M110.79,50.93v2.94c0,0.64,0.07,1.03,0.21,1.18c0.19,0.22,0.47,0.33,0.85,0.33h0.39v0.28h-4.32v-0.28h0.38
            c0.43,0,0.73-0.14,0.92-0.42c0.1-0.15,0.15-0.52,0.15-1.1v-6.53c0-0.63-0.07-1.03-0.2-1.18c-0.19-0.22-0.48-0.33-0.86-0.33h-0.38
            v-0.28h3.7c0.9,0,1.62,0.09,2.14,0.28c0.52,0.19,0.96,0.5,1.32,0.94c0.36,0.44,0.54,0.97,0.54,1.57c0,0.82-0.27,1.49-0.82,2.01
            c-0.54,0.52-1.31,0.77-2.31,0.77c-0.24,0-0.51-0.02-0.79-0.05C111.42,51.06,111.11,51.01,110.79,50.93z M110.79,50.51
            c0.26,0.05,0.5,0.09,0.7,0.11c0.2,0.03,0.38,0.04,0.52,0.04c0.52,0,0.96-0.2,1.33-0.6c0.37-0.4,0.56-0.92,0.56-1.55
            c0-0.44-0.09-0.84-0.27-1.22c-0.18-0.37-0.43-0.66-0.76-0.84c-0.33-0.19-0.7-0.28-1.11-0.28c-0.25,0-0.58,0.05-0.97,0.14V50.51z"
            />
    </g>
</g>
<g>
    <path class="st1" d="M161.43,53.47c-11.84,0-21.47-9.63-21.47-21.47s9.63-21.47,21.47-21.47c11.84,0,21.47,9.63,21.47,21.47
        S173.27,53.47,161.43,53.47z M161.35,23.53c0.03,0,1.74,1.84,1.74,3.31c0,1.59-1.24,1.97-1.66,1.97c-0.02,0-0.05,0-0.07,0h-0.02
        c-0.03,0-0.05,0-0.07,0c-0.42,0-1.66-0.38-1.66-1.97C159.61,25.37,161.32,23.53,161.35,23.53z M145.18,33.19h1.96v-3.62h3.29v-1.52
        h-3.29v-2.01h3.4v-1.51h-5.36V33.19z M163.13,23.79h2.07l-2.4-8.66h-2.64l-2.49,8.66h1.91l0.55-1.93h2.5L163.13,23.79z
         M162.27,20.39h-1.8l0.84-3.77h0.14L162.27,20.39z M171.34,28.87c0,2.54,1.18,4.48,3.67,4.48c2.5,0,3.69-1.93,3.69-4.48
        c0-2.54-1.19-4.48-3.69-4.48C172.52,24.39,171.34,26.32,171.34,28.87z M173.43,28.87c0-1.66,0.41-3.01,1.58-3.01
        c1.18,0,1.6,1.35,1.6,3.01s-0.42,3.01-1.6,3.01C173.83,31.88,173.43,30.53,173.43,28.87z M160.52,51.08
        c0.11-0.84,0.23-2.18,0.23-3.76c0-0.43,0-0.15,0-0.27c0-2.22-0.08-2.97-1.56-3.46c-2.29-0.76-3.22-3.31-2.72-6.48l-7.65-19.45
        c-3.98,3.51-6.49,8.63-6.49,14.33C142.33,42.23,150.41,50.6,160.52,51.08z M161.42,38.68c-3.04-0.71-4.17-3.48-4.17-5.94
        l-6.69-16.43c-0.44,0.3-0.86,0.63-1.27,0.96c1.47,3.49,8.08,19.17,8.09,19.19c1.17,2.82,3.3,1.88,3.81,4.21
        c0.12,0.56,0.13,0.81,0.13,0.81h0.23c0,0,0-0.25,0.13-0.81c0.51-2.33,2.64-1.39,3.81-4.21c0.01-0.02,6.62-15.7,8.09-19.19
        c-0.41-0.33-0.83-0.66-1.27-0.96l-6.69,16.43c0,2.46-1.13,5.23-4.17,5.94H161.42z M161.42,33.72c-1.29-0.29-2.9-1.57-3.11-3.22
        c-0.08-0.63-0.14-0.8-0.04-2.05l-5.87-13.28c-0.47,0.25-0.93,0.53-1.38,0.82c1.75,3.94,7.12,15.98,7.12,16
        c0.85,1.79,2.34,1.82,2.85,2.89c0.31,0.63,0.34,1.2,0.34,1.24h0.2c0-0.05,0.04-0.61,0.34-1.24c0.52-1.07,2.01-1.1,2.85-2.89
        c0-0.01,5.37-12.06,7.12-16c-0.45-0.29-0.91-0.57-1.38-0.82l-5.86,13.28c0.09,1.25,0.03,1.42-0.05,2.05
        c-0.21,1.65-1.82,2.93-3.1,3.22H161.42z M161.5,31.46l0.09-0.72c0.37-1.68,1.59-1.47,2.44-3.12c0-0.01,0.01-0.03,0.01-0.03
        c0.03-0.06,4.18-8.97,5.91-12.68c-2.57-1.28-5.46-2.01-8.52-2.01c-3.06,0-5.95,0.73-8.52,2.01c1.73,3.72,5.88,12.62,5.91,12.68
        c0,0,0.01,0.02,0.01,0.03c0.84,1.65,2.06,1.44,2.43,3.12l0.09,0.72H161.5z M180.53,32c0-5.7-2.51-10.82-6.48-14.33l-7.65,19.45
        c0.51,3.18-0.43,5.73-2.72,6.48c-1.48,0.49-1.56,1.24-1.56,3.46c0,0.12,0-0.17,0,0.27c0,1.58,0.12,2.92,0.23,3.76
        C172.45,50.6,180.53,42.23,180.53,32z M148.37,37.64c0,0,0.28,0.6,0.51,1.03c0.23,0.43,0.54,0.94,0.54,0.94l-0.5,0.29
        c0,0-0.38-0.64-0.73-1.37c-0.1,0.05-0.7,0.36-0.8,0.41c0.06,0.11,0.68,1.3,0.68,1.3l-0.51,0.29c0,0-0.63-1.22-0.68-1.32
        c-0.11,0.05-1.41,0.73-1.41,0.73l-0.31-0.62l3.19-1.66L148.37,37.64z M150.38,40.91l0.44,0.54l-2.79,2.33l-0.45-0.53l2.76-2.31
        L150.38,40.91z M152.97,43.36l0.55,0.4l-0.72,3.85l-0.63-0.36c0,0,0.16-0.78,0.18-0.86c-0.03-0.02-0.4-0.25-0.76-0.5
        c-0.36-0.26-0.72-0.55-0.75-0.57c-0.07,0.04-0.77,0.45-0.77,0.45l-0.54-0.46l3.4-1.92L152.97,43.36z M151.35,44.99
        c0.07,0.06,0.3,0.25,0.55,0.42c0.25,0.17,0.5,0.34,0.57,0.37c0.04-0.16,0.29-1.43,0.34-1.66C152.61,44.24,151.5,44.9,151.35,44.99z
         M155.27,44.77c0,0,0.59,0.29,1.43,0.58c0.57,0.2,1.06,0.35,1.53,0.46l-0.17,0.55c0,0-0.45-0.08-1.19-0.31
        c-0.04,0.12-1,2.86-1,2.86l-0.66-0.23c0,0,0.96-2.75,1-2.87c-0.69-0.26-1.17-0.51-1.17-0.51L155.27,44.77z M166.75,45.5
        c0.24,0.13,0.41,0.35,0.51,0.66c0.04,0.13,0.07,0.26,0.07,0.38c0,0.51-0.36,0.91-1,1.11c0,0-0.32,0.1-0.42,0.13
        c0.04,0.12,0.42,1.35,0.42,1.35l-0.64,0.16l-1.08-3.5l0.97-0.3C166.06,45.35,166.46,45.35,166.75,45.5z M165.4,46.16
        c0.03,0.11,0.3,0.96,0.33,1.07c0.13-0.04,0.42-0.13,0.42-0.13c0.1-0.03,0.32-0.12,0.43-0.33c0.04-0.07,0.05-0.14,0.05-0.22
        c0-0.06-0.01-0.12-0.03-0.19c-0.04-0.13-0.12-0.22-0.23-0.28c-0.2-0.11-0.46-0.08-0.63-0.03C165.75,46.05,165.49,46.13,165.4,46.16
        z M168.92,43.98l3.15,2.31l-0.56,0.39c0,0-0.63-0.48-0.7-0.53c-0.04,0.02-0.36,0.25-0.71,0.46c-0.33,0.2-0.69,0.38-0.72,0.4
        c0.02,0.08,0.14,0.86,0.14,0.86l-0.6,0.29l-0.53-3.87L168.92,43.98z M169.28,46.42c0.09-0.05,0.34-0.18,0.58-0.33
        c0.22-0.13,0.39-0.24,0.48-0.31c-0.13-0.1-1.11-0.85-1.32-1C169.07,45.04,169.26,46.26,169.28,46.42z M172.52,40.79l2.75,2.45
        l-0.5,0.58c0,0-2.58-0.75-2.97-0.86c0.29,0.28,1.89,1.96,1.89,1.96l-0.48,0.44l-2.59-2.63l0.61-0.54c0,0,2.49,0.74,2.88,0.85
        c-0.29-0.28-2.01-1.75-2.01-1.75L172.52,40.79z M173.78,38.96l3.18,1.85l-0.32,0.56l-3.2-1.85L173.78,38.96z M175.16,35.91
        l0.55,0.28l-0.05,0.06c-0.18,0.22-0.26,0.33-0.34,0.57c-0.04,0.11-0.09,0.32-0.01,0.48c0.04,0.08,0.11,0.15,0.22,0.18
        c0.24,0.08,0.45-0.13,0.69-0.37c0.34-0.34,0.75-0.76,1.43-0.54c0.68,0.23,0.92,0.84,0.63,1.67c-0.09,0.25-0.24,0.47-0.39,0.67
        l-0.03,0.04l-0.56-0.26l0.06-0.07c0.07-0.08,0.3-0.36,0.39-0.63c0.09-0.24,0.08-0.65-0.29-0.77c-0.3-0.11-0.53,0.13-0.8,0.4
        c-0.32,0.34-0.69,0.72-1.3,0.51c-0.27-0.09-0.47-0.26-0.58-0.49c-0.14-0.28-0.14-0.63-0.01-1c0.08-0.25,0.22-0.51,0.38-0.71
        L175.16,35.91z"/>
</g>
<g>
    <path class="st1" d="M190.86,15.04h4.28v1.24h-2.73v2.3h2.6v1.24h-2.6v3.68h-1.55V15.04z"/>
    <path class="st1" d="M198.52,17.16c1.27,0,2.74,0.67,2.74,3.21c0,2.62-1.47,3.22-2.74,3.22c-1.27,0-2.75-0.61-2.75-3.22
        C195.77,17.83,197.25,17.16,198.52,17.16z M198.52,22.53c0.97,0,1.19-1.11,1.19-2.16c0-1.04-0.22-2.14-1.19-2.14
        c-0.97,0-1.2,1.1-1.2,2.14C197.32,21.41,197.56,22.53,198.52,22.53z"/>
    <path class="st1" d="M205.03,17.16c1.27,0,2.74,0.67,2.74,3.21c0,2.62-1.47,3.22-2.74,3.22s-2.75-0.61-2.75-3.22
        C202.28,17.83,203.75,17.16,205.03,17.16z M205.03,22.53c0.97,0,1.19-1.11,1.19-2.16c0-1.04-0.22-2.14-1.19-2.14
        c-0.97,0-1.2,1.1-1.2,2.14C203.83,21.41,204.06,22.53,205.03,22.53z"/>
    <path class="st1" d="M214.07,14.41v8.02c0,0.45,0.01,0.84,0.05,1.07h-1.4c-0.02-0.18-0.05-0.54-0.05-0.97h-0.04
        c-0.24,0.53-0.69,1.07-1.66,1.07c-1.55,0-2.19-1.48-2.19-3.21c0-2.03,0.81-3.22,2.16-3.22c0.9,0,1.39,0.51,1.61,0.99h0.02v-3.74
        H214.07z M211.38,22.49c0.88,0,1.19-0.96,1.19-2.13c0-1.21-0.34-2.1-1.16-2.1c-0.84,0-1.13,0.81-1.13,2.06
        C210.28,21.76,210.51,22.49,211.38,22.49z"/>
    <path class="st1" d="M218.9,17.62c0.42-0.19,1.02-0.46,1.98-0.46c1.94,0,2.39,0.94,2.39,2.51v2.73c0,0.45,0.05,0.86,0.08,1.1h-1.36
        c-0.07-0.24-0.08-0.54-0.08-0.85h-0.02c-0.38,0.51-0.85,0.94-1.74,0.94c-0.97,0-1.87-0.67-1.87-1.83c0-1.7,1.38-2.12,3.28-2.12h0.3
        v-0.23c0-0.62-0.3-1.19-1.16-1.19c-0.75,0-1.42,0.36-1.71,0.61L218.9,17.62z M221.86,20.44h-0.13c-1.28,0-2.05,0.27-2.05,1.17
        c0,0.57,0.38,0.96,0.96,0.96c0.9,0,1.22-0.67,1.22-1.78V20.44z"/>
    <path class="st1" d="M224.65,18.29c0-0.39-0.01-0.75-0.05-1.03h1.4c0.01,0.32,0.05,0.64,0.05,0.96h0.02
        c0.22-0.38,0.64-1.05,1.66-1.05c1.42,0,1.84,1.05,1.84,2.31v4.02h-1.5v-3.74c0-0.96-0.24-1.36-0.86-1.36
        c-0.79,0-1.07,0.67-1.07,1.47v3.63h-1.5V18.29z"/>
    <path class="st1" d="M236.06,14.41v8.02c0,0.45,0.01,0.84,0.05,1.07h-1.4c-0.02-0.18-0.05-0.54-0.05-0.97h-0.04
        c-0.24,0.53-0.69,1.07-1.66,1.07c-1.55,0-2.19-1.48-2.19-3.21c0-2.03,0.81-3.22,2.16-3.22c0.9,0,1.39,0.51,1.61,0.99h0.02v-3.74
        H236.06z M233.37,22.49c0.88,0,1.19-0.96,1.19-2.13c0-1.21-0.34-2.1-1.16-2.1c-0.84,0-1.13,0.81-1.13,2.06
        C232.27,21.76,232.5,22.49,233.37,22.49z"/>
    <path class="st1" d="M244.38,21.46h-2.91l-0.61,2.04h-1.55l2.83-8.46h1.7l2.73,8.46h-1.6L244.38,21.46z M244.05,20.27l-1.07-3.95
        h-0.02l-1.16,3.95H244.05z"/>
    <path class="st1" d="M247.51,24.46c0.35,0.19,1.05,0.53,1.84,0.53c1.42,0,1.65-0.98,1.65-1.96v-0.59h-0.02
        c-0.24,0.48-0.67,1.05-1.65,1.05c-0.87,0-2.18-0.58-2.18-3.1c0-1.72,0.62-3.23,2.25-3.23c0.91,0,1.33,0.52,1.65,1.07h0.05
        c0-0.33,0.04-0.64,0.05-0.97h1.36c-0.02,0.33-0.05,0.65-0.05,0.98v4.6c0,1.95-0.59,3.34-2.88,3.34c-0.99,0-1.78-0.25-2.14-0.39
        L247.51,24.46z M249.68,22.39c0.94,0,1.32-0.68,1.32-2.1c0-1.31-0.5-2.01-1.21-2c-0.79,0.01-1.09,0.74-1.09,2.01
        C248.7,21.77,249.17,22.39,249.68,22.39z"/>
    <path class="st1" d="M253.87,18.29c0-0.39-0.01-0.75-0.05-1.03h1.36c0.01,0.38,0.05,0.76,0.05,1.14h0.02
        c0.18-0.48,0.65-1.24,1.59-1.24c0.1,0,0.17,0.02,0.26,0.04v1.41c-0.13-0.04-0.27-0.06-0.42-0.06c-0.62,0-1.3,0.38-1.3,1.54v3.42
        h-1.5V18.29z"/>
    <path class="st1" d="M258.21,14.6h1.55v1.48h-1.55V14.6z M258.23,17.26h1.5v6.24h-1.5V17.26z"/>
    <path class="st1" d="M265.47,23.34c-0.35,0.13-0.87,0.25-1.48,0.25c-2.06,0-2.93-1.44-2.93-3.21c0-1.78,0.92-3.22,3.02-3.22
        c0.47,0,1.03,0.15,1.31,0.25l-0.09,1.19c-0.27-0.13-0.64-0.3-1.05-0.3c-1.14,0-1.63,0.76-1.63,2.1c0,1.16,0.56,2.06,1.71,2.06
        c0.36,0,0.86-0.17,1.07-0.3L265.47,23.34z"/>
    <path class="st1" d="M271.32,22.46c0,0.39,0.01,0.75,0.05,1.03h-1.41c-0.01-0.32-0.05-0.64-0.05-0.96l-0.04-0.01l0.01,0.01
        c-0.29,0.46-0.68,1.05-1.66,1.05c-1.42,0-1.84-1.05-1.84-2.31v-4.02h1.5V21c0,0.96,0.27,1.36,0.9,1.36c0.8,0,1.03-0.73,1.03-1.53
        v-3.57h1.5V22.46z"/>
    <path class="st1" d="M272.82,14.41h1.5v9.09h-1.5V14.41z"/>
    <path class="st1" d="M276.38,15.97l1.5-0.46v1.74h1.25v1.1h-1.25v3.23c0,0.67,0.24,0.86,0.68,0.86c0.27,0,0.46-0.07,0.57-0.13v1.07
        c-0.23,0.11-0.56,0.21-1.01,0.21c-1.11,0-1.74-0.51-1.74-1.82v-3.42h-0.99v-1.1h0.99V15.97z"/>
    <path class="st1" d="M285.02,22.46c0,0.39,0.01,0.75,0.05,1.03h-1.41c-0.01-0.32-0.05-0.64-0.05-0.96l-0.04-0.01l0.01,0.01
        c-0.29,0.46-0.68,1.05-1.66,1.05c-1.42,0-1.84-1.05-1.84-2.31v-4.02h1.5V21c0,0.96,0.27,1.36,0.9,1.36c0.8,0,1.03-0.73,1.03-1.53
        v-3.57h1.5V22.46z"/>
    <path class="st1" d="M286.42,18.29c0-0.39-0.01-0.75-0.05-1.03h1.36c0.01,0.38,0.05,0.76,0.05,1.14h0.02
        c0.18-0.48,0.65-1.24,1.59-1.24c0.1,0,0.17,0.02,0.25,0.04v1.41c-0.13-0.04-0.27-0.06-0.42-0.06c-0.62,0-1.3,0.38-1.3,1.54v3.42
        h-1.5V18.29z"/>
    <path class="st1" d="M295.09,23.19c-0.31,0.13-0.97,0.4-1.86,0.4c-2.01,0-2.88-1.44-2.88-3.13c0-1.87,0.98-3.31,2.57-3.31
        c1.34,0,2.5,0.79,2.5,3.33v0.29h-3.61c0,1.07,0.42,1.71,1.59,1.71c0.92,0,1.36-0.28,1.63-0.48L295.09,23.19z M293.95,19.84
        c0-1.1-0.36-1.66-1.04-1.66c-0.79,0-1.11,0.84-1.11,1.66H293.95z"/>
    <path class="st1" d="M193.89,28.61c1.76,0,3.37,1.31,3.37,4.35c0,3.04-1.61,4.35-3.37,4.35c-1.76,0-3.37-1.31-3.37-4.35
        C190.52,29.91,192.13,28.61,193.89,28.61z M193.89,36.12c0.98,0,1.77-0.84,1.77-3.16c0-2.33-0.79-3.16-1.77-3.16
        s-1.77,0.84-1.77,3.16C192.12,35.28,192.91,36.12,193.89,36.12z"/>
    <path class="st1" d="M198.54,31.97c0-0.39-0.01-0.75-0.05-1.03h1.36c0.01,0.38,0.05,0.76,0.05,1.14h0.02
        c0.18-0.48,0.65-1.24,1.59-1.24c0.1,0,0.17,0.02,0.26,0.04v1.41c-0.13-0.04-0.27-0.06-0.42-0.06c-0.62,0-1.3,0.38-1.3,1.54v3.42
        h-1.5V31.97z"/>
    <path class="st1" d="M202.82,38.15c0.35,0.19,1.05,0.53,1.84,0.53c1.42,0,1.65-0.98,1.65-1.96v-0.59h-0.02
        c-0.24,0.48-0.67,1.05-1.65,1.05c-0.87,0-2.18-0.58-2.18-3.1c0-1.72,0.62-3.23,2.25-3.23c0.91,0,1.33,0.52,1.65,1.07h0.05
        c0-0.33,0.04-0.64,0.05-0.97h1.36c-0.02,0.33-0.05,0.65-0.05,0.98v4.6c0,1.95-0.59,3.34-2.88,3.34c-0.99,0-1.78-0.25-2.14-0.39
        L202.82,38.15z M204.99,36.08c0.94,0,1.32-0.68,1.32-2.1c0-1.31-0.5-2.01-1.21-2c-0.79,0.01-1.09,0.74-1.09,2.01
        C204.01,35.46,204.48,36.08,204.99,36.08z"/>
    <path class="st1" d="M209.43,31.31c0.42-0.19,1.02-0.46,1.98-0.46c1.94,0,2.39,0.95,2.39,2.51v2.73c0,0.45,0.05,0.86,0.08,1.1
        h-1.36c-0.07-0.24-0.08-0.54-0.08-0.85h-0.02c-0.38,0.51-0.85,0.94-1.74,0.94c-0.97,0-1.87-0.67-1.87-1.83
        c0-1.7,1.38-2.12,3.28-2.12h0.3V33.1c0-0.62-0.3-1.19-1.16-1.19c-0.75,0-1.42,0.36-1.71,0.61L209.43,31.31z M212.39,34.13h-0.13
        c-1.28,0-2.05,0.27-2.05,1.18c0,0.57,0.38,0.96,0.96,0.96c0.9,0,1.22-0.67,1.22-1.78V34.13z"/>
    <path class="st1" d="M215.18,31.97c0-0.39-0.01-0.75-0.05-1.03h1.4c0.01,0.32,0.05,0.64,0.05,0.96h0.02
        c0.22-0.38,0.64-1.05,1.66-1.05c1.42,0,1.84,1.05,1.84,2.31v4.02h-1.5v-3.74c0-0.96-0.24-1.36-0.86-1.36
        c-0.79,0-1.07,0.67-1.07,1.47v3.63h-1.5V31.97z"/>
    <path class="st1" d="M221.59,28.29h1.55v1.48h-1.55V28.29z M221.61,30.94h1.5v6.24h-1.5V30.94z"/>
    <path class="st1" d="M224.28,35.89l2.67-3.8h-2.58v-1.14h4.08v1.28l-2.62,3.82h2.7v1.14h-4.25V35.89z"/>
    <path class="st1" d="M229.85,31.31c0.42-0.19,1.02-0.46,1.98-0.46c1.94,0,2.39,0.95,2.39,2.51v2.73c0,0.45,0.05,0.86,0.08,1.1
        h-1.36c-0.07-0.24-0.09-0.54-0.09-0.85h-0.02c-0.38,0.51-0.85,0.94-1.74,0.94c-0.97,0-1.87-0.67-1.87-1.83
        c0-1.7,1.38-2.12,3.28-2.12h0.3V33.1c0-0.62-0.3-1.19-1.16-1.19c-0.75,0-1.42,0.36-1.71,0.61L229.85,31.31z M232.8,34.13h-0.13
        c-1.28,0-2.05,0.27-2.05,1.18c0,0.57,0.38,0.96,0.96,0.96c0.9,0,1.22-0.67,1.22-1.78V34.13z"/>
    <path class="st1" d="M236.16,29.66l1.5-0.46v1.74h1.25v1.1h-1.25v3.23c0,0.67,0.24,0.86,0.68,0.86c0.27,0,0.46-0.07,0.57-0.13v1.07
        c-0.23,0.11-0.56,0.21-1.01,0.21c-1.11,0-1.74-0.51-1.74-1.82v-3.42h-0.99v-1.1h0.99V29.66z"/>
    <path class="st1" d="M239.98,28.29h1.55v1.48h-1.55V28.29z M240.01,30.94h1.5v6.24h-1.5V30.94z"/>
    <path class="st1" d="M245.59,30.85c1.27,0,2.74,0.67,2.74,3.21c0,2.62-1.47,3.22-2.74,3.22c-1.27,0-2.75-0.61-2.75-3.22
        C242.84,31.51,244.32,30.85,245.59,30.85z M245.59,36.21c0.97,0,1.19-1.11,1.19-2.16c0-1.04-0.22-2.14-1.19-2.14
        c-0.97,0-1.2,1.1-1.2,2.14C244.39,35.1,244.62,36.21,245.59,36.21z"/>
    <path class="st1" d="M249.51,31.97c0-0.39-0.01-0.75-0.05-1.03h1.4c0.01,0.32,0.05,0.64,0.05,0.96h0.02
        c0.22-0.38,0.64-1.05,1.66-1.05c1.42,0,1.84,1.05,1.84,2.31v4.02h-1.5v-3.74c0-0.96-0.24-1.36-0.86-1.36
        c-0.79,0-1.07,0.67-1.07,1.47v3.63h-1.5V31.97z"/>
    <path class="st1" d="M261.52,30.85c1.27,0,2.74,0.67,2.74,3.21c0,2.62-1.47,3.22-2.74,3.22c-1.27,0-2.75-0.61-2.75-3.22
        C258.77,31.51,260.25,30.85,261.52,30.85z M261.52,36.21c0.97,0,1.19-1.11,1.19-2.16c0-1.04-0.22-2.14-1.19-2.14
        c-0.97,0-1.2,1.1-1.2,2.14C260.33,35.1,260.56,36.21,261.52,36.21z"/>
    <path class="st1" d="M265.93,32.05h-1.04v-1.1h1.04v-1.27c0-0.9,0.42-1.72,1.79-1.72c0.4,0,0.79,0.08,1.08,0.15l-0.06,1.09
        c-0.18-0.05-0.38-0.1-0.59-0.1c-0.44,0-0.71,0.3-0.71,0.78v1.08h1.14v1.1h-1.14v5.14h-1.5V32.05z"/>
    <path class="st1" d="M273.18,29.66l1.5-0.46v1.74h1.25v1.1h-1.25v3.23c0,0.67,0.24,0.86,0.68,0.86c0.27,0,0.46-0.07,0.57-0.13v1.07
        c-0.23,0.11-0.56,0.21-1.01,0.21c-1.11,0-1.74-0.51-1.74-1.82v-3.42h-0.99v-1.1h0.99V29.66z"/>
    <path class="st1" d="M276.89,28.1h1.5v3.65h0.04c0.27-0.39,0.62-0.9,1.55-0.9c1.42,0,1.84,1.05,1.84,2.31v4.02h-1.5v-3.74
        c0-0.96-0.24-1.36-0.86-1.36c-0.79,0-1.07,0.67-1.07,1.47v3.63h-1.5V28.1z"/>
    <path class="st1" d="M287.75,36.88c-0.31,0.13-0.97,0.4-1.86,0.4c-2.01,0-2.88-1.44-2.88-3.13c0-1.87,0.98-3.31,2.57-3.31
        c1.34,0,2.5,0.79,2.5,3.33v0.29h-3.61c0,1.07,0.42,1.71,1.59,1.71c0.92,0,1.36-0.28,1.63-0.48L287.75,36.88z M286.61,33.52
        c0-1.1-0.36-1.66-1.04-1.66c-0.79,0-1.11,0.84-1.11,1.66H286.61z"/>
    <path class="st1" d="M192.34,42.41v5.48c0,1.41,0.42,1.87,1.33,1.87c0.88,0,1.32-0.46,1.32-1.87v-5.48h1.55v5.48
        c0,2.23-1.28,3.1-2.87,3.1c-1.6,0-2.88-0.87-2.88-3.1v-5.48H192.34z"/>
    <path class="st1" d="M198.04,45.66c0-0.39-0.01-0.75-0.05-1.03h1.4c0.01,0.31,0.05,0.64,0.05,0.96h0.02
        c0.22-0.38,0.64-1.05,1.66-1.05c1.42,0,1.84,1.05,1.84,2.31v4.02h-1.5v-3.74c0-0.96-0.24-1.36-0.86-1.36
        c-0.79,0-1.07,0.67-1.07,1.47v3.63h-1.5V45.66z"/>
    <path class="st1" d="M204.44,41.98h1.55v1.48h-1.55V41.98z M204.47,44.63h1.5v6.24h-1.5V44.63z"/>
    <path class="st1" d="M208.03,43.35l1.5-0.46v1.74h1.25v1.1h-1.25v3.23c0,0.67,0.24,0.86,0.68,0.86c0.27,0,0.46-0.07,0.57-0.13v1.07
        c-0.23,0.11-0.56,0.21-1.01,0.21c-1.11,0-1.74-0.51-1.74-1.82v-3.42h-0.99v-1.1h0.99V43.35z"/>
    <path class="st1" d="M216.31,50.57c-0.31,0.13-0.97,0.4-1.86,0.4c-2.01,0-2.88-1.44-2.88-3.13c0-1.87,0.98-3.31,2.57-3.31
        c1.34,0,2.5,0.79,2.5,3.33v0.29h-3.61c0,1.07,0.42,1.71,1.59,1.71c0.92,0,1.36-0.28,1.63-0.48L216.31,50.57z M215.17,47.21
        c0-1.1-0.36-1.66-1.04-1.66c-0.79,0-1.11,0.84-1.11,1.66H215.17z"/>
    <path class="st1" d="M222.91,41.78v8.02c0,0.45,0.01,0.84,0.05,1.07h-1.4c-0.02-0.18-0.05-0.55-0.05-0.97h-0.04
        c-0.24,0.53-0.69,1.07-1.66,1.07c-1.55,0-2.19-1.48-2.19-3.21c0-2.03,0.81-3.22,2.16-3.22c0.9,0,1.39,0.51,1.61,0.99h0.02v-3.74
        H222.91z M220.22,49.86c0.88,0,1.19-0.96,1.19-2.13c0-1.21-0.34-2.1-1.16-2.1c-0.84,0-1.13,0.81-1.13,2.06
        C219.12,49.14,219.35,49.86,220.22,49.86z"/>
    <path class="st1" d="M227.64,42.41h1.84l2.81,6.64h0.02v-6.64h1.4v8.46h-1.85l-2.8-6.59h-0.02v6.59h-1.41V42.41z"/>
    <path class="st1" d="M235.59,44.99c0.42-0.19,1.02-0.46,1.98-0.46c1.94,0,2.39,0.94,2.39,2.51v2.73c0,0.45,0.05,0.86,0.08,1.1
        h-1.36c-0.07-0.24-0.09-0.55-0.09-0.85h-0.02c-0.38,0.51-0.85,0.94-1.74,0.94c-0.97,0-1.87-0.67-1.87-1.83
        c0-1.7,1.38-2.12,3.28-2.12h0.3v-0.23c0-0.62-0.3-1.19-1.16-1.19c-0.75,0-1.42,0.36-1.71,0.61L235.59,44.99z M238.54,47.82h-0.13
        c-1.28,0-2.05,0.27-2.05,1.18c0,0.57,0.38,0.96,0.96,0.96c0.9,0,1.22-0.67,1.22-1.78V47.82z"/>
    <path class="st1" d="M241.9,43.35l1.5-0.46v1.74h1.25v1.1h-1.25v3.23c0,0.67,0.24,0.86,0.68,0.86c0.27,0,0.46-0.07,0.57-0.13v1.07
        c-0.23,0.11-0.56,0.21-1.01,0.21c-1.11,0-1.74-0.51-1.74-1.82v-3.42h-0.99v-1.1h0.99V43.35z"/>
    <path class="st1" d="M245.72,41.98h1.55v1.48h-1.55V41.98z M245.75,44.63h1.5v6.24h-1.5V44.63z"/>
    <path class="st1" d="M251.33,44.53c1.27,0,2.74,0.67,2.74,3.21c0,2.62-1.47,3.22-2.74,3.22c-1.27,0-2.75-0.61-2.75-3.22
        C248.58,45.2,250.06,44.53,251.33,44.53z M251.33,49.9c0.97,0,1.19-1.11,1.19-2.16c0-1.04-0.22-2.14-1.19-2.14
        c-0.97,0-1.2,1.1-1.2,2.14C250.13,48.79,250.36,49.9,251.33,49.9z"/>
    <path class="st1" d="M255.25,45.66c0-0.39-0.01-0.75-0.05-1.03h1.4c0.01,0.31,0.05,0.64,0.05,0.96h0.02
        c0.22-0.38,0.64-1.05,1.66-1.05c1.42,0,1.84,1.05,1.84,2.31v4.02h-1.5v-3.74c0-0.96-0.24-1.36-0.86-1.36
        c-0.79,0-1.07,0.67-1.07,1.47v3.63h-1.5V45.66z"/>
    <path class="st1" d="M261.37,49.42c0.24,0.1,0.86,0.41,1.56,0.41c0.54,0,0.97-0.13,0.97-0.62c0-0.24-0.12-0.47-0.67-0.79
        l-0.62-0.36c-0.63-0.38-1.32-0.78-1.32-1.76c0-0.86,0.84-1.77,2.16-1.77c0.8,0,1.42,0.21,1.56,0.25l-0.09,1.16
        c-0.38-0.15-0.78-0.28-1.32-0.28c-0.61,0-0.86,0.23-0.86,0.61c0,0.34,0.27,0.52,0.7,0.8l0.74,0.47c0.78,0.5,1.16,0.85,1.16,1.57
        c0,1.15-0.97,1.84-2.33,1.84c-0.78,0-1.42-0.18-1.73-0.3L261.37,49.42z"/>
</g>
<g>
    <path class="st2" d="M45.26,44.01c-0.2,0.22-0.41,0.45-0.63,0.66c-3.25,3.24-7.71,5.24-12.65,5.24c-4.95,0-9.41-2-12.65-5.24
        c-3.24-3.24-5.24-7.71-5.24-12.66c0-4.95,2-9.41,5.24-12.65c3.24-3.24,7.71-5.24,12.65-5.24c4.94,0,9.41,2,12.65,5.24
        c0.37,0.37,0.73,0.77,1.07,1.17H53C48.94,13.08,41.04,8.04,31.96,8.04C18.73,8.04,8,18.76,8,32c0,13.24,10.73,23.96,23.96,23.96
        c8.86,0,16.6-4.81,20.74-11.96H45.26"/>
    <rect x="21.66" y="26.76" class="st2" width="2.46" height="11.2"/>
    <path class="st2" d="M35.47,33.72c0,3.03-1.79,4.5-4.78,4.5c-3.01,0-4.77-1.46-4.77-4.5v-6.96h2.46v6.96
        c0,1.22,0.31,2.43,2.31,2.43c1.75,0,2.32-0.77,2.32-2.43v-6.96h2.46V33.72"/>
    <path class="st2" d="M44.74,30.52c-0.16-1.11-1.22-1.96-2.45-1.96c-2.21,0-3.04,1.88-3.04,3.84c0,1.87,0.83,3.75,3.04,3.75
        c1.5,0,2.35-1.03,2.54-2.51h2.38c-0.25,2.79-2.18,4.58-4.92,4.58c-3.47,0-5.5-2.59-5.5-5.82c0-3.32,2.04-5.91,5.5-5.91
        c2.46,0,4.53,1.44,4.83,4.03H44.74"/>
    <polyline class="st2" points="48.58,26.76 51.02,26.76 55.69,34.27 55.73,34.27 55.73,26.76 58.03,26.76 58.03,37.95 55.57,37.95
        50.91,30.46 50.88,30.46 50.88,37.95 48.58,37.95 48.58,26.76     "/>
</g>
</svg>
