<svg id="Layer_1" data-name="Layer 1" xmlns="http://www.w3.org/2000/svg" viewBox="0 0 180 150"><title>ecolex-logo</title><path d="M151.79,63.11l-24-48a2,2,0,0,0-1.79-1V14H96a2,2,0,0,0-2,2,4,4,0,0,1-8,0,2,2,0,0,0-2-2H54v0.09a2,2,0,0,0-1.79,1l-24,48a2,2,0,0,0,.19,2.1,32,32,0,0,0,51.2,0,2,2,0,0,0,.19-2.1L57.24,18h25A8,8,0,0,0,88,23.72V86H54a2,2,0,1,0,0,4h72a2,2,0,0,0,0-4H92V23.72A8,8,0,0,0,97.75,18h25L100.21,63.11a2,2,0,0,0,.19,2.1,32,32,0,0,0,51.2,0A2,2,0,0,0,151.79,63.11ZM74.76,62H33.24L54,20.47Zm30.47,0L126,20.47,146.76,62H105.24Z" style="fill:#fff"/><path d="M114.82,60c11.52,0,21.6,0,21.6-16-3.11,3.11-6.93,3.2-10.8,3.2C119.29,47.2,114.82,52.25,114.82,60Z" style="fill:#1cb54b"/><path d="M15,135V105H33.87v4.5H20v7.6H31.79v4.52H20v8.72H33.87V135H15Z" style="fill:#1cb54b"/><path d="M62.64,129.87a15,15,0,0,1-1.76,2.26,10,10,0,0,1-2.32,1.82,12,12,0,0,1-3.1,1.21,17.07,17.07,0,0,1-4.14.45q-6.85,0-10.18-3.9T37.82,120q0-7.86,3.33-11.73c2.23-2.58,5.54-3.87,10-3.87a17.52,17.52,0,0,1,4,.42A12.62,12.62,0,0,1,58.22,106a9.45,9.45,0,0,1,2.31,1.75,11.63,11.63,0,0,1,1.65,2.17l-4,2.93a16.33,16.33,0,0,0-1-1.45,6.28,6.28,0,0,0-1.39-1.26,6.8,6.8,0,0,0-1.92-.89,9,9,0,0,0-2.62-.34q-4.22,0-6.19,2.79T43,120a21.22,21.22,0,0,0,.53,5.06,9.38,9.38,0,0,0,1.57,3.46,6.07,6.07,0,0,0,2.58,2,9.32,9.32,0,0,0,3.53.63,9.57,9.57,0,0,0,2.62-.33,7.64,7.64,0,0,0,2-.87,7.18,7.18,0,0,0,1.5-1.3A15.43,15.43,0,0,0,58.55,127Z" style="fill:#1cb54b"/><path d="M91.1,120a27.81,27.81,0,0,1-.71,6.57,13.24,13.24,0,0,1-2.23,4.9,9.85,9.85,0,0,1-3.91,3.08,15.86,15.86,0,0,1-11.41,0,9.92,9.92,0,0,1-3.9-3.08,13.39,13.39,0,0,1-2.24-4.9,30.71,30.71,0,0,1,0-13.15,13.26,13.26,0,0,1,2.24-4.9,9.9,9.9,0,0,1,3.9-3.06,13.92,13.92,0,0,1,5.7-1.06,14.09,14.09,0,0,1,5.71,1,9.73,9.73,0,0,1,3.91,3,13.19,13.19,0,0,1,2.23,4.91A28,28,0,0,1,91.1,120Zm-5.28,0a27,27,0,0,0-.39-4.88,10.14,10.14,0,0,0-1.26-3.48,5.54,5.54,0,0,0-2.25-2.07,7.46,7.46,0,0,0-3.37-.69,7.57,7.57,0,0,0-3.41.69,5.55,5.55,0,0,0-2.26,2.07,10,10,0,0,0-1.26,3.48,30.94,30.94,0,0,0,0,9.77,9.84,9.84,0,0,0,1.27,3.47,5.61,5.61,0,0,0,2.27,2.08,8.63,8.63,0,0,0,6.77,0,5.43,5.43,0,0,0,2.25-2.07,10.11,10.11,0,0,0,1.26-3.47A27.07,27.07,0,0,0,85.81,120Z" style="fill:#1cb54b"/><path d="M96,135V105h5v25.34h13.09V135H96Z" style="fill:#fff"/><path d="M119,135V105h18.87v4.5H124v7.6h11.75v4.52H124v8.72h13.83V135H119Z" style="fill:#fff"/><path d="M141.89,135l9.85-15L142.15,105H148l6.65,11,6.86-11h5.63l-9.7,14.8L167.06,135h-5.75l-6.86-11.17-7,11.17h-5.59Z" style="fill:#fff"/><rect y="90" width="180" height="60" style="fill:none"/></svg>
