<svg xmlns="http://www.w3.org/2000/svg" viewBox="0 0 152 60" enable-background="new 0 0 152 60"><path fill="#898989" d="M0 45V15.045h18.87v4.505H5.04v7.597h11.752v4.52H5.042v8.724H18.87V45H0zM47.638 39.89c-.516.81-1.102 1.567-1.762 2.264-.65.698-1.427 1.303-2.315 1.818-.885.51-1.918.92-3.103 1.213-1.184.298-2.56.445-4.14.445-4.57 0-7.963-1.305-10.178-3.898-2.212-2.6-3.324-6.503-3.324-11.712 0-5.24 1.112-9.145 3.333-11.73 2.225-2.584 5.535-3.874 9.955-3.874 1.516 0 2.86.143 4.027.42 1.167.28 2.198.67 3.09 1.157.897.495 1.667 1.072 2.31 1.748.64.67 1.194 1.394 1.65 2.172l-4.025 2.926c-.313-.49-.662-.978-1.044-1.453-.385-.48-.85-.9-1.387-1.263-.547-.373-1.178-.667-1.915-.887-.736-.228-1.61-.337-2.622-.337-2.812 0-4.87.932-6.188 2.79-1.31 1.863-1.97 4.64-1.97 8.33 0 1.98.182 3.67.53 5.065.355 1.403.875 2.55 1.57 3.455.69.9 1.55 1.565 2.577 1.98 1.025.417 2.2.628 3.526.628.993 0 1.867-.11 2.616-.325.753-.218 1.413-.51 1.982-.872.57-.373 1.07-.806 1.503-1.305.434-.495.837-1.026 1.214-1.59l4.088 2.838zM76.096 30.02c0 2.455-.236 4.644-.706 6.57-.47 1.924-1.215 3.558-2.23 4.9-1.016 1.343-2.315 2.365-3.908 3.077-1.58.706-3.486 1.063-5.71 1.063-2.22 0-4.126-.357-5.703-1.063-1.58-.712-2.883-1.734-3.9-3.076-1.014-1.343-1.76-2.977-2.24-4.9-.476-1.927-.71-4.115-.71-6.57 0-2.45.234-4.647.71-6.58.48-1.933 1.227-3.566 2.24-4.9 1.018-1.335 2.32-2.355 3.9-3.062 1.576-.706 3.483-1.06 5.702-1.06 2.224 0 4.13.35 5.71 1.05 1.593.698 2.893 1.713 3.91 3.048 1.014 1.342 1.76 2.976 2.228 4.91.47 1.93.706 4.13.706 6.594zm-5.282 0c0-1.86-.13-3.484-.39-4.88-.265-1.393-.68-2.55-1.256-3.476-.576-.917-1.325-1.615-2.253-2.074-.924-.464-2.048-.69-3.375-.69-1.34 0-2.48.227-3.407.69-.932.46-1.686 1.157-2.263 2.074-.576.926-1 2.083-1.26 3.476-.258 1.396-.387 3.02-.387 4.88 0 1.865.13 3.493.388 4.886.26 1.388.686 2.545 1.27 3.47.584.926 1.344 1.615 2.27 2.077.93.462 2.067.695 3.39.695 1.327 0 2.45-.23 3.375-.686.928-.453 1.677-1.14 2.253-2.065.575-.924.99-2.08 1.256-3.475.26-1.39.39-3.023.39-4.902zM81 45V15.045h5.045V40.39h13.092V45H81zM104 45V15.045h18.87v4.505h-13.83v7.597h11.754v4.52H109.04v8.724h13.83V45H104zM126.785 45l9.848-15.02-9.59-14.936h5.822l6.646 10.973 6.864-10.973H152l-9.697 14.8L151.955 45H146.2l-6.858-11.167L132.372 45h-5.587zM113.37 3c-3.96 0-9.37-.705-9.37 7.998l3.87.002c7.202 0 13.5 0 13.5-10-1.944 1.945-4.038 2-8 2z"/></svg>