<svg xmlns="http://www.w3.org/2000/svg" viewBox="0 0 60 60" enable-background="new 0 0 60 60"><path fill="#fff" d="M30.002 51.725C18.02 51.725 8.275 41.98 8.275 30c0-11.98 9.745-21.725 21.727-21.725C41.98 8.275 51.725 18.02 51.725 30c0 11.98-9.746 21.725-21.723 21.725m-.083-30.292c.03 0 1.762 1.86 1.762 3.35 0 1.612-1.255 1.996-1.68 1.996-.023 0-.048-.002-.072-.004h-.02l-.074.003c-.424 0-1.683-.385-1.683-1.997 0-1.49 1.734-3.35 1.766-3.35M13.557 31.21h1.983v-3.665h3.33v-1.53h-3.33v-2.032h3.442v-1.53h-5.425v8.756zm18.155-9.513H33.8l-2.424-8.758h-2.674l-2.513 8.757h1.935l.555-1.956h2.534l.5 1.957zm-.868-3.437h-1.817l.848-3.813h.136l.833 3.813zm9.177 8.57c0 2.572 1.195 4.53 3.716 4.53 2.522 0 3.726-1.958 3.726-4.53 0-2.57-1.204-4.53-3.726-4.53-2.52 0-3.716 1.96-3.716 4.53m2.112 0c0-1.68.412-3.05 1.605-3.05 1.19 0 1.617 1.37 1.617 3.05 0 1.684-.427 3.052-1.618 3.052-1.194 0-1.606-1.368-1.606-3.05M29.078 49.3c.11-.852.23-2.206.23-3.802v-.27c0-2.242-.084-3-1.585-3.496-2.31-.766-3.255-3.347-2.745-6.56l-7.74-19.67c-4.02 3.544-6.56 8.726-6.56 14.494 0 10.348 8.172 18.818 18.4 19.303m.917-12.544c-3.08-.715-4.222-3.518-4.222-6.01l-6.77-16.623c-.445.307-.874.632-1.29.973 1.49 3.53 8.177 19.395 8.185 19.418 1.185 2.848 3.332 1.904 3.854 4.26.125.568.133.814.133.814h.23s.008-.246.134-.814c.52-2.355 2.668-1.412 3.853-4.26.007-.023 6.696-15.89 8.183-19.418-.413-.34-.842-.666-1.283-.973l-6.775 16.622c0 2.493-1.14 5.293-4.22 6.01h-.013zm-.01-5.017c-1.3-.29-2.928-1.587-3.14-3.255-.08-.636-.14-.812-.047-2.073l-5.932-13.436c-.48.26-.947.537-1.402.834l7.208 16.187c.854 1.807 2.36 1.844 2.884 2.922.31.638.338 1.21.347 1.256h.194c.008-.047.037-.618.347-1.257.52-1.08 2.028-1.116 2.883-2.923.01-.016 5.432-12.195 7.208-16.187-.454-.297-.922-.575-1.4-.834L33.2 26.412c.092 1.262.032 1.438-.048 2.073-.212 1.668-1.84 2.964-3.14 3.254h-.028zm.084-2.28l.092-.736c.377-1.698 1.61-1.487 2.466-3.157.002-.007.012-.025.012-.025.032-.063 4.228-9.068 5.98-12.83-2.597-1.3-5.523-2.034-8.618-2.034-3.097 0-6.025.733-8.622 2.033 1.754 3.764 5.95 12.77 5.982 12.832 0 0 .007.02.012.025.855 1.67 2.09 1.46 2.465 3.157l.092.736h.137zm19.254.54c0-5.77-2.54-10.95-6.563-14.495l-7.738 19.67c.51 3.213-.435 5.794-2.746 6.56-1.5.495-1.584 1.254-1.584 3.496v.27c0 1.597.12 2.95.233 3.802 10.225-.486 18.4-8.956 18.4-19.303M16.78 35.707s.288.606.522 1.038c.23.43.547.95.547.95l-.51.295s-.393-.64-.743-1.388c-.1.05-.715.368-.814.42.058.107.686 1.314.686 1.314l-.52.297-.69-1.338-1.427.736-.312-.627 3.227-1.68.034-.015zm2.04 3.305l.452.543-2.826 2.358-.46-.54 2.8-2.336.033-.025zm2.615 2.475l.56.398-.72 3.892-.643-.37.176-.868c-.03-.023-.404-.248-.762-.503-.37-.264-.73-.558-.762-.58l-.777.458-.548-.466 3.438-1.94.037-.022zm-1.628 1.653c.063.058.304.25.553.426.248.177.503.343.576.378l.346-1.68c-.212.124-1.33.79-1.475.877m3.956-.22s.597.296 1.444.586c.573.198 1.066.354 1.545.46l-.168.564s-.456-.083-1.202-.31l-1.013 2.894-.667-.23 1.012-2.897c-.7-.26-1.18-.518-1.18-.518l.228-.55zm11.62.74c.24.127.414.354.514.67.04.136.063.264.063.39 0 .51-.355.917-1.01 1.12l-.42.133c.034.115.42 1.36.42 1.36l-.642.168-1.093-3.54.973-.304c.492-.154.895-.152 1.196.005m-1.37.67c.034.106.304.97.34 1.078l.426-.133c.096-.03.326-.12.438-.33.035-.07.055-.146.055-.227 0-.062-.01-.122-.03-.188-.04-.13-.117-.224-.234-.284-.2-.107-.467-.08-.634-.028l-.36.11m3.56-2.21l3.187 2.334-.563.4s-.643-.485-.708-.536c-.036.024-.362.254-.715.466-.337.203-.7.382-.736.403.016.08.14.862.14.862l-.604.293-.535-3.91.535-.313zm.367 2.473c.094-.043.344-.18.59-.326.22-.133.394-.244.48-.315l-1.333-1.014c.043.26.238 1.496.263 1.655m3.278-5.694l2.785 2.483-.505.587s-2.606-.765-3.004-.87c.297.28 1.91 1.986 1.91 1.986l-.485.44-2.62-2.66.614-.553s2.517.752 2.916.855c-.294-.28-2.03-1.772-2.03-1.772l.42-.497zm1.273-1.852l3.222 1.87-.327.565-3.24-1.875.345-.56zm1.397-3.09l.553.286-.055.065c-.184.218-.265.33-.348.575-.04.112-.093.326-.01.49.04.084.115.146.22.182.248.083.46-.132.703-.38.337-.346.757-.774 1.44-.542.692.234.925.85.64 1.69-.084.253-.24.473-.392.673l-.03.045-.572-.267.058-.066c.07-.08.307-.36.398-.635.086-.245.076-.656-.29-.78-.314-.107-.542.132-.81.408-.326.34-.698.727-1.317.518-.27-.09-.47-.262-.587-.494-.14-.28-.144-.637-.016-1.013.084-.254.225-.514.383-.71l.033-.046z"/></svg>