<?xml version="1.0" encoding="utf-8"?>
<!-- Generator: Adobe Illustrator 17.0.0, SVG Export Plug-In . SVG Version: 6.00 Build 0)  -->
<!DOCTYPE svg PUBLIC "-//W3C//DTD SVG 1.1//EN" "http://www.w3.org/Graphics/SVG/1.1/DTD/svg11.dtd">
<svg version="1.1" id="Layer_1" xmlns="http://www.w3.org/2000/svg" xmlns:xlink="http://www.w3.org/1999/xlink" x="0px" y="0px"
	 width="12px" height="12px" viewBox="0 0 12 12" style="enable-background:new 0 0 12 12;" xml:space="preserve">
<style type="text/css">
	.st0{fill:#FFFFFF;}
</style>
<g>
	<path class="st0" d="M9,1.2L10.8,3c0.1,0.1,0.1,0.1,0.1,0.2s0,0.1-0.1,0.2L8.1,6l2.7,2.7c0.1,0,0.1,0.1,0.1,0.2s0,0.1-0.1,0.2
		L9,10.8c-0.1,0.1-0.1,0.1-0.2,0.1s-0.1,0-0.2-0.1L6,8.1l-2.7,2.7c0,0.1-0.1,0.1-0.2,0.1S3,10.9,3,10.8L1.2,9C1.1,9,1.1,8.9,1.1,8.9
		s0-0.1,0.1-0.2L3.9,6L1.2,3.3c-0.1,0-0.1-0.1-0.1-0.2S1.1,3,1.2,3L3,1.2C3,1.1,3.1,1.1,3.1,1.1s0.1,0,0.2,0.1L6,3.9l2.7-2.7
		c0,0,0.1-0.1,0.2-0.1S9,1.1,9,1.2z"/>
</g>
</svg>
