<?xml version="1.0" encoding="utf-8"?>
<!-- Generator: Adobe Illustrator 17.0.0, SVG Export Plug-In . SVG Version: 6.00 Build 0)  -->
<!DOCTYPE svg PUBLIC "-//W3C//DTD SVG 1.1//EN" "http://www.w3.org/Graphics/SVG/1.1/DTD/svg11.dtd">
<svg version="1.1" id="Layer_1" xmlns="http://www.w3.org/2000/svg" xmlns:xlink="http://www.w3.org/1999/xlink" x="0px" y="0px"
	 width="12px" height="12px" viewBox="0 0 12 12" style="enable-background:new 0 0 12 12;" xml:space="preserve">
<style type="text/css">
	.st0{fill:#FFFFFF;}
</style>
<g>
	<path class="st0" d="M5,0.5h2c0.1,0,0.3,0,0.4,0.1S7.5,0.9,7.5,1v3.5H11c0.1,0,0.3,0,0.4,0.1s0.1,0.2,0.1,0.4v2
		c0,0.1,0,0.3-0.1,0.4S11.1,7.5,11,7.5H7.5V11c0,0.1,0,0.3-0.1,0.4S7.1,11.5,7,11.5H5c-0.1,0-0.3,0-0.4-0.1S4.5,11.1,4.5,11V7.5H1
		c-0.1,0-0.3,0-0.4-0.1S0.5,7.1,0.5,7V5c0-0.1,0-0.3,0.1-0.4S0.9,4.5,1,4.5h3.5V1c0-0.1,0-0.3,0.1-0.4S4.9,0.5,5,0.5z"/>
</g>
</svg>
