<svg xmlns="http://www.w3.org/2000/svg" viewBox="0 0 60 60" enable-background="new 0 0 60 60"><g fill="#fff"><path d="M41.1 40.885c-.185.203-.375.403-.57.6-2.94 2.938-6.986 4.748-11.47 4.752-4.482-.004-8.53-1.813-11.47-4.752-2.936-2.94-4.75-6.99-4.75-11.473s1.814-8.53 4.75-11.47c2.94-2.94 6.987-4.752 11.47-4.753 4.484 0 8.53 1.813 11.47 4.75.34.34.663.695.972 1.062h6.62c-3.686-6.75-10.848-11.327-19.077-11.327C17.05 8.275 7.325 18 7.323 30c0 12 9.726 21.724 21.722 21.725 8.033 0 15.045-4.36 18.803-10.84H41.1"/><path d="M19.706 25.247h2.23v10.15h-2.23zM32.226 31.558c0 2.745-1.618 4.08-4.333 4.08-2.73 0-4.32-1.323-4.32-4.08v-6.31h2.23v6.31c0 1.11.284 2.204 2.09 2.204 1.59 0 2.102-.696 2.102-2.204v-6.31h2.23v6.31M40.626 28.66c-.142-1.01-1.108-1.777-2.217-1.777-2.005 0-2.758 1.704-2.758 3.482 0 1.69.753 3.397 2.757 3.397 1.363 0 2.13-.938 2.3-2.273h2.162c-.23 2.528-1.976 4.148-4.463 4.148-3.143 0-4.99-2.346-4.99-5.273 0-3.013 1.848-5.36 4.99-5.36 2.23 0 4.107 1.31 4.376 3.655h-2.16M44.108 25.247h2.216l4.236 6.81h.03v-6.81h2.087v10.15h-2.23L46.224 28.6h-.027v6.794h-2.09v-10.15"/></g></svg>