<svg xmlns="http://www.w3.org/2000/svg" viewBox="0 0 180 60" enable-background="new 0 0 180 60"><g fill="#fff"><path fill-rule="evenodd" clip-rule="evenodd" d="M133.393 26.486c-1.14-1.406-1.896-2.777-1.896-4.107 0-1.142.152-1.713.494-2.17.265 1.294.568 2.17 1.064 2.968.415.646 1.137 1.825 1.25 2.7.19-1.864.682-3.194 2.16-4.754 0 1.94 0 3.005-.758 4.37-.492.917-.605 1.79-.605 3.12h-.114l-1.593-2.128zm2.048 5.475c-2.692-1.215-3.68-2.66-3.68-6.082h.115c.986 2.13 2.77 4.448 4.475 5.02-.532-2.055-.42-3.233.113-5.02.91 1.292 1.063 2.472 1.063 4.03 0 1.142 0 2.434.795 3.194l-.11.114-2.77-1.255zm-.947-18.024l.113.115c-.608 2.13-.835 3.878-.417 6.123.72-1.712 2.273-2.776 3.45-3.387-.266 1.6-.722 2.4-2.048 3.73-.76.76-1.403 1.48-1.708 2.66h-.113c-.718-2.51-1.1-3.613-1.1-5.135.002-1.52.723-3.078 1.823-4.104zM133.28 31.77l.112-.11c1.214 1.178 2.313 1.86 4.135 2.054.795.113 2.16.684 2.88 1.025-1.212-1.064-1.705-3.12-1.705-4.83.872.76 2.046 2.052 2.273 3.193.115.61.873 1.79 1.82 2.282-1.212.306-2.048.382-3.337.382-2.767 0-5.345-1.332-6.18-3.996zm1.82-15.666c.265-1.56.53-2.548.985-3.31.683-1.18 1.555-2.357 2.73-2.85l.112.113c-1.063 1.558-1.743 2.928-2.16 4.602.985-.725 2.807-1.104 3.792-1.258-.495.84-1.48 1.6-3.033 2.32-.95.457-1.557.876-2.618 1.94l-.077-.114.267-1.444zm9.365 23.39c1.328-1.256 2.655-2.166 4.21-2.813-2.96.15-4.437 1.443-7.168 1.443-1.364 0-3.147-.382-4.132-1.33l.113-.112c.53.15.985.15 1.44.15 1.48 0 4.246-1.14 6.41-1.14 1.78 0 2.882.19 4.395.762 1.48-.57 2.656-.762 4.363-.762 2.16 0 4.928 1.14 6.408 1.14.532 0 .947 0 1.44-.15l.116.114c-.987.947-2.77 1.33-4.135 1.33-2.655 0-4.172-1.295-7.168-1.443 1.554.647 2.882 1.558 4.208 2.813h-1.1c-1.212-1.484-3.26-2.548-4.134-2.548-.832 0-2.957 1.063-4.395 2.548h-.87zm-5.424-27.65c.912-1.786 2.582-3.612 5.045-3.84-1.024 1.445-2.01 2.395-3.3 3.348.8-.23 1.52-.42 2.126-.42.494 0 1.063.115 1.555.307-1.06.757-2.54 1.14-3.336 1.14-.76 0-1.935.303-2.733.53l.644-1.065zM147.5 22.38c.948.11 1.897 1.254 1.897 3.915 0 4.45-1.327 7.418-1.936 7.418-1.063 0-7.546-2.587-7.546-9.89 0-1.937.38-2.282.985-2.166l6.598.722zm-6.484-1.372c-.378.038-.492-.227-.492-.38 0-.417 2.615-6.577 9.364-6.577 6.752 0 9.368 6.16 9.368 6.58 0 .15-.114.416-.493.378l-8.493-1.33v-.114c.606-.228.91-.72.91-1.406 0-.76-.417-1.37-1.29-1.37-.87 0-1.29.61-1.29 1.37 0 .686.305 1.18.91 1.406v.115l-8.493 1.328zm2.275-10.8h-.38v-.112l1.063-.722c1.213-1.027 2.086-1.37 3.147-1.37.53 0 .948.114 1.364.343v.113c-1.213.19-2.35.494-3.526 1.102 1.44.23 1.973.38 3.224 1.18-.305.077-.684.19-1.06.19-1.443 0-2.125-.647-3.833-.723zm9.48-.645c-.795 0-1.782.114-2.652.343v.115c.756.19 1.363.8 1.78 1.482-1.404-.264-2.843-.95-3.716-2.053.76-.27 1.743-.686 2.69-.686.608 0 1.405.115 1.898.8zm6.104 12.094c.608-.116.987.23.987 2.166 0 7.303-6.485 9.89-7.547 9.89-.606 0-1.932-2.968-1.932-7.418 0-2.66.948-3.804 1.896-3.916l6.598-.723zm-5.5-10.042c-.378-.15-.604-.72-.832-1.29 1.288.226 2.162.797 2.54 1.938l-1.707-.648zm3.946 24.152h-.454v-.077c.947-.532 1.174-1.18 1.44-1.675.76-1.445 1.67-2.85 2.92-3.5-.265 1.143-.646 3.31-2.16 4.376l.113.116c2.73-.61 4.89-1.562 7.203-3.464l.114.115c-1.138 3.118-4.097 4.412-6.03 4.412-.606 0-1.553-.303-3.147-.303zm.302-27.002c1.442 0 2.808.61 3.34 1.98-1.176-.23-2.2-.724-2.922-1.524l-.418-.455zm4.665 2.966l.113-.114c-.454-.568-1.176-1.672-1.176-1.938 1.784.532 2.353 1.825 2.466 3.5-2.123-.458-3.45-1.066-4.095-2.358l2.692.91zm1.403 14.26c.113.686.38 1.865.38 2.625 0 .987-.267 2.055-.76 2.852l.076.076c2.047-1.447 3.224-3.155 4.55-5.132l.114.076c-.378 3.004-1.668 5.475-6.408 6.843.494-.988.494-2.053.494-2.814 0-1.673.378-2.966 1.554-4.526zm2.314-8.1c-1.895-.987-3.262-2.433-4.248-4.372l.115-.115c.53.27 2.693 1.333 2.958 1.827l.114-.113c-.38-.57-.494-2.435-.494-2.854 1.29 1.14 1.783 2.7 1.783 4.336 0 .418-.074.834-.226 1.29zm.227 4.908c-.226-.91-.492-1.408-1.174-2.056-.493-.646-1.1-2.09-1.366-3.61l.113-.114c.153.38.53.76 1.442 1.56.378.38.87 1.14.91 1.75h.112l.682-4.338h.114c.342.797.607 1.787.607 2.587.003 1.14-.794 3.31-1.44 4.22zm-1.896-1.52c.723 1.1 1.404 2.545 1.44 4.104h.116c.113-.76.34-1.445.91-1.938.378-.38 1.25-1.94 1.518-2.437h.11c.42 2.512-.983 5.058-3.183 7.456.038-1.788-1.29-4.755-1.29-5.78.002-.495.154-1.18.38-1.406z"/><path d="M138.435 42.595v-.258h3.32v.258h-.353c-.37 0-.653.155-.852.466-.095.145-.145.48-.145 1.004v3.83c0 .942-.092 1.676-.28 2.198-.186.52-.557.97-1.104 1.343-.547.374-1.295.56-2.24.56-1.027 0-1.807-.178-2.34-.536-.53-.356-.907-.838-1.13-1.44-.15-.412-.223-1.188-.223-2.326v-3.686c0-.58-.08-.962-.24-1.143-.16-.18-.418-.27-.775-.27h-.354v-.26h4.067v.26h-.36c-.388 0-.667.122-.83.368-.118.167-.175.515-.175 1.044v4.11c0 .367.033.787.1 1.26.067.474.19.843.365 1.107.176.266.428.482.76.654.33.173.738.26 1.218.26.617 0 1.167-.137 1.654-.405.484-.27.816-.614.995-1.034.18-.42.27-1.13.27-2.133v-3.82c0-.588-.065-.958-.195-1.106-.18-.202-.447-.305-.802-.305h-.35zM141.727 42.337h2.55l5.764 7.084v-5.447c0-.578-.064-.94-.196-1.084-.17-.2-.44-.295-.812-.295h-.327v-.258h3.278v.258h-.333c-.397 0-.68.12-.848.362-.1.148-.152.486-.152 1.016v7.96h-.25l-6.208-7.607v5.817c0 .58.063.942.188 1.086.176.195.446.292.813.292h.333v.26h-3.277v-.26h.325c.403 0 .688-.12.854-.36.1-.15.152-.488.152-1.02v-6.565c-.27-.32-.48-.532-.62-.634-.142-.103-.35-.196-.623-.287-.135-.04-.34-.06-.61-.06v-.26zM155.155 42.854v3.725h2.07c.537 0 .895-.083 1.076-.245.242-.214.378-.59.402-1.128h.26V48.5h-.26c-.063-.46-.128-.754-.192-.885-.084-.162-.22-.29-.41-.383-.19-.095-.482-.14-.876-.14h-2.07v3.113c0 .417.02.67.058.76.037.093.103.166.193.218.094.055.27.082.53.082h1.596c.532 0 .92-.038 1.16-.112.242-.075.472-.222.696-.438.285-.29.58-.724.88-1.304h.278l-.814 2.37h-7.255v-.26h.33c.224 0 .435-.053.636-.16.147-.075.248-.188.3-.337.055-.148.083-.454.083-.916V43.98c0-.6-.063-.97-.182-1.108-.164-.187-.444-.277-.835-.277h-.33v-.258h7.264l.094 2.075h-.27c-.097-.5-.205-.842-.322-1.03-.12-.185-.292-.327-.524-.425-.185-.068-.513-.104-.978-.104h-2.585zM163.787 47.357v2.75c0 .594.064.963.194 1.107.176.205.442.307.796.307h.36v.26h-4.027v-.26h.35c.4 0 .683-.128.856-.387.092-.146.137-.486.137-1.025v-6.1c0-.595-.062-.965-.187-1.108-.18-.203-.45-.306-.806-.306h-.352v-.258h3.448c.843 0 1.508.088 1.994.26.486.175.896.47 1.23.882.33.415.5.902.5 1.47 0 .77-.253 1.397-.76 1.88-.51.483-1.225.724-2.15.724-.228 0-.473-.015-.736-.048-.263-.032-.544-.08-.847-.147zm0-.398c.247.048.464.082.65.104.19.023.354.035.486.035.48 0 .896-.187 1.243-.56.35-.373.524-.86.524-1.454 0-.407-.084-.787-.25-1.14-.166-.35-.4-.61-.707-.785-.304-.173-.65-.26-1.04-.26-.234 0-.537.044-.907.133v3.926z"/></g><g fill="#fff"><path d="M101.1 40.885c-.185.203-.375.403-.57.6-2.94 2.938-6.986 4.748-11.47 4.752-4.482-.004-8.53-1.813-11.47-4.752-2.937-2.94-4.75-6.99-4.75-11.473s1.814-8.53 4.75-11.47c2.94-2.94 6.987-4.752 11.47-4.753 4.483 0 8.53 1.813 11.47 4.75.34.34.663.695.972 1.062h6.62c-3.685-6.75-10.847-11.326-19.076-11.326C77.05 8.276 67.324 18 67.323 30c0 12 9.726 21.724 21.722 21.725 8.033 0 15.045-4.36 18.803-10.84H101.1"/><path d="M79.706 25.247h2.23v10.15h-2.23zM92.226 31.558c0 2.745-1.618 4.08-4.333 4.08-2.73 0-4.32-1.323-4.32-4.08v-6.31h2.23v6.31c0 1.11.284 2.204 2.09 2.204 1.59 0 2.103-.696 2.103-2.204v-6.31h2.23v6.31M100.626 28.66c-.142-1.01-1.108-1.777-2.217-1.777-2.005 0-2.758 1.704-2.758 3.482 0 1.69.753 3.397 2.757 3.397 1.363 0 2.13-.938 2.3-2.273h2.162c-.23 2.528-1.976 4.148-4.463 4.148-3.143 0-4.99-2.346-4.99-5.273 0-3.013 1.848-5.36 4.99-5.36 2.23 0 4.107 1.31 4.376 3.655h-2.16M104.108 25.247h2.216l4.236 6.81h.03v-6.81h2.087v10.15h-2.23l-4.223-6.795h-.027v6.794h-2.09v-10.15"/></g><path fill="#fff" d="M30.002 51.725C18.02 51.725 8.275 41.98 8.275 30c0-11.98 9.745-21.725 21.727-21.725C41.98 8.275 51.725 18.02 51.725 30c0 11.98-9.746 21.725-21.723 21.725m-.083-30.292c.03 0 1.762 1.86 1.762 3.35 0 1.612-1.255 1.996-1.68 1.996-.023 0-.048-.002-.072-.004h-.02l-.074.003c-.424 0-1.683-.385-1.683-1.997 0-1.49 1.734-3.35 1.766-3.35M13.557 31.21h1.983v-3.665h3.33v-1.53h-3.33v-2.032h3.442v-1.53h-5.425v8.756zm18.155-9.513H33.8l-2.424-8.758h-2.674l-2.513 8.757h1.935l.555-1.956h2.534l.5 1.957zm-.868-3.437h-1.817l.848-3.813h.136l.833 3.813zm9.177 8.57c0 2.572 1.195 4.53 3.716 4.53 2.522 0 3.726-1.958 3.726-4.53 0-2.57-1.204-4.53-3.726-4.53-2.52 0-3.716 1.96-3.716 4.53m2.112 0c0-1.68.412-3.05 1.605-3.05 1.19 0 1.617 1.37 1.617 3.05 0 1.684-.427 3.052-1.618 3.052-1.194 0-1.606-1.368-1.606-3.05M29.078 49.3c.11-.852.23-2.206.23-3.802v-.27c0-2.242-.084-3-1.585-3.496-2.31-.766-3.255-3.347-2.745-6.56l-7.74-19.67c-4.02 3.544-6.56 8.726-6.56 14.494 0 10.348 8.172 18.818 18.4 19.303m.917-12.544c-3.08-.715-4.222-3.518-4.222-6.01l-6.77-16.623c-.445.307-.874.632-1.29.973 1.49 3.53 8.177 19.395 8.185 19.418 1.185 2.848 3.332 1.904 3.854 4.26.125.568.133.814.133.814h.23s.008-.246.134-.814c.52-2.355 2.668-1.412 3.853-4.26.007-.023 6.696-15.89 8.183-19.418-.413-.34-.842-.666-1.283-.973l-6.775 16.622c0 2.493-1.14 5.293-4.22 6.01h-.013zm-.01-5.017c-1.3-.29-2.928-1.587-3.14-3.255-.08-.636-.14-.812-.047-2.073l-5.932-13.436c-.48.26-.947.537-1.402.834l7.208 16.187c.854 1.807 2.36 1.844 2.884 2.922.31.638.338 1.21.347 1.256h.194c.008-.047.037-.618.347-1.257.52-1.08 2.028-1.116 2.883-2.923.01-.016 5.432-12.195 7.208-16.187-.454-.297-.922-.575-1.4-.834L33.2 26.412c.092 1.262.032 1.438-.048 2.073-.212 1.668-1.84 2.964-3.14 3.254h-.028zm.084-2.28l.092-.736c.377-1.698 1.61-1.487 2.466-3.157.002-.007.012-.025.012-.025.032-.063 4.228-9.068 5.98-12.83-2.597-1.3-5.523-2.034-8.618-2.034-3.097 0-6.025.733-8.622 2.033 1.754 3.764 5.95 12.77 5.982 12.832 0 0 .007.02.012.025.855 1.67 2.09 1.46 2.465 3.157l.092.736h.137zm19.254.54c0-5.77-2.54-10.95-6.563-14.495l-7.738 19.67c.51 3.213-.435 5.794-2.746 6.56-1.5.495-1.584 1.254-1.584 3.496v.27c0 1.597.12 2.95.233 3.802 10.225-.486 18.4-8.956 18.4-19.303M16.78 35.707s.288.606.522 1.038c.23.43.547.95.547.95l-.51.295s-.393-.64-.743-1.388c-.1.05-.715.368-.814.42.058.107.686 1.314.686 1.314l-.52.297-.69-1.338-1.427.736-.312-.627 3.227-1.68.034-.015zm2.04 3.305l.452.543-2.826 2.358-.46-.54 2.8-2.336.033-.025zm2.615 2.475l.56.398-.72 3.892-.643-.37.176-.868c-.03-.023-.404-.248-.762-.503-.37-.264-.73-.558-.762-.58l-.777.458-.548-.466 3.438-1.94.037-.022zm-1.628 1.653c.063.058.304.25.553.426.248.177.503.343.576.378l.346-1.68c-.212.124-1.33.79-1.475.877m3.956-.22s.597.296 1.444.586c.573.198 1.066.354 1.545.46l-.168.564s-.456-.083-1.202-.31l-1.013 2.894-.667-.23 1.012-2.897c-.7-.26-1.18-.518-1.18-.518l.228-.55zm11.62.74c.24.127.414.354.514.67.04.136.063.264.063.39 0 .51-.355.917-1.01 1.12l-.42.133c.034.115.42 1.36.42 1.36l-.642.168-1.093-3.54.973-.304c.492-.154.895-.152 1.196.005m-1.37.67c.034.106.304.97.34 1.078l.426-.133c.096-.03.326-.12.438-.33.035-.07.055-.146.055-.227 0-.062-.01-.122-.03-.188-.04-.13-.117-.224-.234-.284-.2-.107-.467-.08-.634-.028l-.36.11m3.56-2.21l3.187 2.334-.563.4s-.643-.485-.708-.536c-.036.024-.362.254-.715.466-.337.203-.7.382-.736.403.016.08.14.862.14.862l-.604.293-.535-3.91.535-.313zm.367 2.473c.094-.043.344-.18.59-.326.22-.133.394-.244.48-.315l-1.333-1.014c.043.26.238 1.496.263 1.655m3.278-5.694l2.785 2.483-.505.587s-2.606-.765-3.004-.87c.297.28 1.91 1.986 1.91 1.986l-.485.44-2.62-2.66.614-.553s2.517.752 2.916.855c-.294-.28-2.03-1.772-2.03-1.772l.42-.497zm1.273-1.852l3.222 1.87-.327.565-3.24-1.875.345-.56zm1.397-3.09l.553.286-.055.065c-.184.218-.265.33-.348.575-.04.112-.093.326-.01.49.04.084.115.146.22.182.248.083.46-.132.703-.38.337-.346.757-.774 1.44-.542.692.234.925.85.64 1.69-.084.253-.24.473-.392.673l-.03.045-.572-.267.058-.066c.07-.08.307-.36.398-.635.086-.245.076-.656-.29-.78-.314-.107-.542.132-.81.408-.326.34-.698.727-1.317.518-.27-.09-.47-.262-.587-.494-.14-.28-.144-.637-.016-1.013.084-.254.225-.514.383-.71l.033-.046z"/></svg>