<svg xmlns="http://www.w3.org/2000/svg" viewBox="0 0 60 60" enable-background="new 0 0 60 60"><g fill="#fff"><path fill-rule="evenodd" clip-rule="evenodd" d="M13.393 26.486c-1.14-1.406-1.896-2.777-1.896-4.107 0-1.142.152-1.713.494-2.17.265 1.294.568 2.17 1.064 2.968.415.646 1.137 1.825 1.25 2.7.19-1.864.682-3.194 2.16-4.754 0 1.94 0 3.005-.758 4.37-.492.917-.606 1.79-.606 3.12h-.115l-1.592-2.128zm2.048 5.475c-2.692-1.215-3.68-2.66-3.68-6.082h.115c.986 2.13 2.768 4.448 4.475 5.02-.532-2.055-.42-3.233.113-5.02.91 1.292 1.063 2.472 1.063 4.03 0 1.142 0 2.434.795 3.194l-.11.114-2.77-1.255zm-.947-18.024l.113.115c-.608 2.13-.835 3.878-.417 6.123.72-1.712 2.273-2.776 3.45-3.387-.266 1.6-.722 2.4-2.048 3.73-.76.76-1.403 1.48-1.708 2.66h-.113c-.718-2.51-1.1-3.613-1.1-5.135.002-1.52.723-3.078 1.823-4.104zM13.28 31.77l.112-.11c1.214 1.178 2.313 1.86 4.135 2.054.795.113 2.16.684 2.88 1.025-1.212-1.064-1.705-3.12-1.705-4.83.872.76 2.046 2.052 2.274 3.193.115.61.873 1.79 1.82 2.282-1.212.306-2.048.382-3.337.382-2.77 0-5.347-1.332-6.18-3.996zm1.82-15.666c.265-1.56.53-2.548.985-3.31.683-1.18 1.555-2.357 2.73-2.85l.112.113c-1.063 1.558-1.743 2.928-2.16 4.602.985-.725 2.807-1.104 3.792-1.258-.495.84-1.48 1.6-3.033 2.32-.95.457-1.557.876-2.618 1.94l-.077-.114.267-1.444zm9.365 23.39c1.328-1.256 2.655-2.166 4.21-2.813-2.96.15-4.437 1.443-7.168 1.443-1.364 0-3.147-.382-4.132-1.33l.113-.112c.53.15.985.15 1.44.15 1.48 0 4.246-1.14 6.41-1.14 1.78 0 2.882.19 4.396.762 1.48-.57 2.656-.762 4.363-.762 2.16 0 4.928 1.14 6.408 1.14.532 0 .947 0 1.44-.15l.116.114c-.986.947-2.77 1.33-4.134 1.33-2.655 0-4.172-1.295-7.168-1.443 1.554.647 2.882 1.558 4.208 2.813h-1.1c-1.212-1.484-3.26-2.548-4.134-2.548-.833 0-2.958 1.063-4.397 2.548h-.87zm-5.424-27.65c.912-1.786 2.582-3.612 5.045-3.84-1.024 1.445-2.01 2.395-3.3 3.348.8-.23 1.52-.42 2.126-.42.494 0 1.063.115 1.555.307-1.06.757-2.54 1.14-3.336 1.14-.76 0-1.935.303-2.733.53l.644-1.065zM27.5 22.38c.948.11 1.897 1.254 1.897 3.915 0 4.45-1.327 7.418-1.935 7.418-1.062 0-7.545-2.587-7.545-9.89 0-1.937.38-2.282.985-2.166l6.598.722zm-6.484-1.372c-.378.038-.492-.227-.492-.38 0-.417 2.615-6.577 9.364-6.577 6.752 0 9.368 6.16 9.368 6.58 0 .15-.114.416-.493.378l-8.493-1.33v-.114c.606-.228.91-.72.91-1.406 0-.76-.417-1.37-1.29-1.37-.87 0-1.29.61-1.29 1.37 0 .686.305 1.18.91 1.406v.115l-8.493 1.328zm2.275-10.8h-.38v-.112l1.063-.722c1.213-1.027 2.086-1.37 3.147-1.37.53 0 .948.114 1.364.343v.113c-1.213.19-2.35.494-3.526 1.102 1.44.23 1.973.38 3.224 1.18-.305.077-.684.19-1.062.19-1.44 0-2.123-.647-3.83-.723zm9.48-.645c-.795 0-1.782.114-2.652.343v.115c.756.19 1.363.8 1.78 1.482-1.404-.264-2.843-.95-3.716-2.053.76-.27 1.743-.686 2.69-.686.608 0 1.405.115 1.898.8zm6.104 12.094c.608-.116.987.23.987 2.166 0 7.303-6.485 9.89-7.547 9.89-.607 0-1.932-2.968-1.932-7.418 0-2.66.948-3.804 1.896-3.916l6.598-.723zm-5.5-10.042c-.378-.15-.604-.72-.832-1.29 1.288.226 2.162.797 2.54 1.938l-1.707-.648zm3.946 24.152h-.454v-.077c.947-.532 1.174-1.18 1.438-1.675.76-1.445 1.67-2.85 2.92-3.5-.264 1.143-.645 3.31-2.16 4.376l.114.116c2.73-.61 4.892-1.562 7.204-3.464l.114.115c-1.138 3.118-4.097 4.412-6.03 4.412-.605 0-1.552-.303-3.146-.303zm.302-27.002c1.442 0 2.808.61 3.34 1.98-1.176-.23-2.2-.724-2.922-1.524l-.418-.455zm4.665 2.966l.113-.114c-.454-.568-1.176-1.672-1.176-1.938 1.784.532 2.353 1.825 2.466 3.5-2.123-.458-3.45-1.066-4.095-2.358l2.692.91zm1.403 14.26c.113.686.38 1.865.38 2.625 0 .987-.267 2.055-.76 2.852l.076.076c2.047-1.447 3.224-3.155 4.55-5.132l.114.076c-.378 3.004-1.668 5.475-6.408 6.843.494-.988.494-2.053.494-2.814 0-1.673.378-2.966 1.554-4.526zm2.314-8.1c-1.895-.987-3.262-2.433-4.248-4.372l.115-.115c.53.27 2.693 1.333 2.958 1.827l.114-.113c-.38-.57-.494-2.435-.494-2.854 1.29 1.14 1.783 2.7 1.783 4.336 0 .418-.074.834-.226 1.29zm.227 4.908c-.227-.91-.492-1.408-1.174-2.056-.493-.646-1.1-2.09-1.366-3.61l.113-.114c.153.38.53.76 1.442 1.56.378.38.87 1.14.91 1.75h.112l.682-4.338h.114c.342.797.607 1.787.607 2.587.003 1.14-.794 3.31-1.44 4.22zm-1.896-1.52c.723 1.1 1.404 2.545 1.44 4.104h.116c.113-.76.34-1.445.91-1.938.378-.38 1.25-1.94 1.518-2.437h.11c.42 2.512-.983 5.058-3.183 7.456.038-1.788-1.29-4.755-1.29-5.78.002-.495.154-1.18.38-1.406z"/><path d="M18.435 42.595v-.258h3.32v.258H21.4c-.37 0-.653.155-.852.466-.095.145-.144.48-.144 1.004v3.83c0 .942-.092 1.676-.28 2.198-.187.52-.557.97-1.104 1.343-.548.374-1.296.56-2.24.56-1.028 0-1.808-.178-2.34-.536-.532-.356-.908-.838-1.132-1.44-.148-.412-.222-1.188-.222-2.326v-3.686c0-.58-.08-.962-.24-1.143-.16-.18-.418-.27-.774-.27h-.354v-.26h4.067v.26h-.36c-.388 0-.667.122-.83.368-.118.167-.175.515-.175 1.044v4.11c0 .367.033.787.1 1.26.067.474.19.843.365 1.107.176.266.428.482.76.654.33.173.738.26 1.218.26.617 0 1.167-.137 1.654-.405.483-.27.815-.614.994-1.034.18-.42.27-1.13.27-2.133v-3.82c0-.588-.065-.958-.195-1.106-.182-.202-.448-.305-.803-.305h-.352zM21.727 42.337h2.55l5.764 7.084v-5.447c0-.578-.064-.94-.196-1.084-.17-.2-.44-.295-.81-.295h-.328v-.258h3.278v.258h-.333c-.396 0-.68.12-.847.362-.1.148-.152.486-.152 1.016v7.96h-.25l-6.207-7.607v5.817c0 .58.063.942.188 1.086.177.195.447.292.814.292h.333v.26H22.25v-.26h.326c.403 0 .688-.12.854-.36.1-.15.153-.488.153-1.02v-6.565c-.27-.32-.482-.532-.62-.634-.142-.103-.35-.196-.623-.287-.134-.04-.338-.06-.61-.06v-.26zM35.155 42.854v3.725h2.07c.537 0 .895-.083 1.076-.245.242-.214.378-.59.402-1.128h.26V48.5h-.26c-.063-.46-.128-.754-.192-.885-.084-.162-.22-.29-.41-.383-.188-.095-.48-.14-.876-.14h-2.07v3.113c0 .417.02.67.058.76.037.093.103.166.193.218.094.055.27.082.53.082h1.596c.532 0 .92-.038 1.16-.112.242-.075.472-.222.696-.438.285-.29.58-.724.88-1.304h.278l-.813 2.37h-7.254v-.26h.33c.224 0 .435-.053.636-.16.146-.075.247-.188.3-.337.054-.148.082-.454.082-.916V43.98c0-.6-.063-.97-.182-1.108-.165-.187-.445-.277-.836-.277h-.33v-.258h7.264l.095 2.075h-.27c-.097-.5-.205-.842-.322-1.03-.12-.185-.292-.327-.524-.425-.186-.068-.514-.104-.98-.104h-2.585zM43.787 47.357v2.75c0 .594.065.963.194 1.107.176.205.44.307.796.307h.36v.26h-4.027v-.26h.352c.398 0 .682-.128.855-.387.092-.146.137-.486.137-1.025v-6.1c0-.595-.062-.965-.187-1.108-.18-.203-.45-.306-.806-.306h-.352v-.258h3.448c.843 0 1.508.088 1.994.26.486.175.896.47 1.23.882.33.415.5.902.5 1.47 0 .77-.253 1.397-.76 1.88-.51.483-1.225.724-2.15.724-.228 0-.473-.015-.736-.048-.263-.032-.544-.08-.847-.147zm0-.398c.247.048.464.082.65.104.19.023.354.035.486.035.48 0 .896-.187 1.243-.56.35-.373.524-.86.524-1.454 0-.407-.084-.787-.25-1.14-.166-.35-.4-.61-.707-.785-.304-.173-.65-.26-1.04-.26-.234 0-.537.044-.907.133v3.926z"/></g></svg>