<?xml version="1.0" encoding="utf-8"?>
<!DOCTYPE svg PUBLIC "-//W3C//DTD SVG 1.1//EN" "http://www.w3.org/Graphics/SVG/1.1/DTD/svg11.dtd">
<svg version="1.1" xmlns="http://www.w3.org/2000/svg" xml:space="preserve" width="100%" height="100%" viewBox="0 0 229.345 231.586">
<g>
  <rect x="25.257" y="138.932" fill-rule="evenodd" clip-rule="evenodd" width="29.006" height="29.006"/>
  <path d="M150.888,36.328L122.996,38.4c-1.689,7.287-2.88,17.403-3.466,25.942l31.357-2.073V36.328z"/>
  <path fill-rule="evenodd" clip-rule="evenodd" d="M217.062,33.221c-9.961-14.92-25.236-25.982-43.123-30.484
    c6.375,6.733,13.787,17.37,17.44,30.484H217.062z"/>
  <path fill-rule="evenodd" clip-rule="evenodd" d="M183.509,33.221c-5.04-18.097-13.306-30.527-22.815-32.543
    c-1.529-0.098-3.071-0.162-4.627-0.164v32.707H183.509z"/>
  <path fill-rule="evenodd" clip-rule="evenodd" d="M126.181,27.182c-0.664,1.933-1.29,3.948-1.872,6.039l24.506-2.072l2.073-30.441
    c-2.037,0.142-4.057,0.356-6.046,0.659c-1.239,0.489-2.453,1.161-3.637,1.996C138.245,12.206,132.922,20.218,126.181,27.182z"/>
  <path d="M112.962,38.4c-14.044,1.434-16.278-2.121-25.831,1.055c-1.706,4.406-6.689,17.009-7.522,21.778h16.093l1.036-5.18
    l14.503-4.143l1.037,10.358h1.384c0.597-8.474,1.815-16.496,3.538-23.869H112.962z"/>
  <path fill-rule="evenodd" clip-rule="evenodd" d="M156.066,62.27H187.9c0,0-0.727-11.648-3.077-21.798L156.066,38.4V62.27z"/>
  <path fill-rule="evenodd" clip-rule="evenodd" d="M175.469,78.846l10.834,18.749c0.776-5.964,2.245-13.256,2.367-19.766
    L175.469,78.846z"/>
  <path fill-rule="evenodd" clip-rule="evenodd" d="M191.02,105.671l13.412,21.532c0,0,13.083-5.621,21.548-31.158
    c1.838-5.822,2.926-11.973,3.253-18.322l-34.692,2.071C194.37,88.928,192.488,97.584,191.02,105.671z"/>
  <path fill-rule="evenodd" clip-rule="evenodd" d="M196.629,72.543h32.716c-0.23-12.371-3.506-23.992-9.132-34.143h-29.595
    C193.022,48.695,196.497,60.272,196.629,72.543z"/>
  <path fill-rule="evenodd" clip-rule="evenodd" d="M97.772,78.327l-20.028,0.519c1.767,15.011,8.304,25.874,16.291,34.53h4.199
    L97.772,78.327z"/>
  <path fill-rule="evenodd" clip-rule="evenodd" d="M113.329,79.77l-1.052,0.11l-0.334,33.496h5.975
    C115.321,103.322,113.7,91.92,113.329,79.77z"/>
  <path fill-rule="evenodd" clip-rule="evenodd" d="M150.062,77.723h-17.554l-13.327,1.422c0.325,12.509,1.94,24.172,4.528,34.231
    h7.296L150.062,77.723z"/>
  <path d="M110.455,118.557l-0.124,12.854l7.708,5.384l4.914-8.35c-1.309-3.081-2.506-6.386-3.58-9.888H110.455z"/>
  <path d="M125.169,118.557c0.374,1.216,0.768,2.394,1.172,3.551l1.897-3.551H125.169z"/>
  <path fill-rule="evenodd" clip-rule="evenodd" d="M144.482,118.557l-12.048,24.909c1.369,1.713,5.255,0.727,6.735,1.933
    c1.799-1.307,7.269-5.414,11.718-7.826v-16.943L144.482,118.557z"/>
  <path fill-rule="evenodd" clip-rule="evenodd" d="M179.523,127.194l-4.031-8.638H158.14l-2.073,16.691
    c1.088-0.347,2.067-0.537,2.826-0.461c5.182,0.518,3.626,11.914,3.626,11.914l3.534-0.839
    C171.209,142.483,175.824,135.963,179.523,127.194z"/>
  <path fill-rule="evenodd" clip-rule="evenodd" d="M182.202,142.038l2.073-4.661l-1.782-3.823c-1.917,3.765-4.02,7.078-6.272,9.9
    L182.202,142.038z"/>
  <polygon fill-rule="evenodd" clip-rule="evenodd" points="173.075,113.376 158.893,82.99 156.066,89.967 156.066,113.376   "/>
  <polygon fill-rule="evenodd" clip-rule="evenodd" points="146.582,113.376 150.888,113.376 150.888,102.752  "/>
  <path fill-rule="evenodd" clip-rule="evenodd" d="M123.56,33.184c5.041-18.096,13.307-31.003,22.815-33.019
    c1.53-0.098,3.072-0.162,4.629-0.165v31.062L123.56,33.184z"/>
  <path fill-rule="evenodd" clip-rule="evenodd" d="M91.352,33.025c9.961-14.918,25.234-25.982,43.122-30.484
    c-6.374,6.734-13.787,17.37-17.438,30.484H91.352z"/>
</g>
<path fill-rule="evenodd" clip-rule="evenodd" d="M173.544,165.982c3.667-3.669,3.623-10.7,3.623-10.7s-7.031,0.993-10.699,4.661
  c-3.67,3.669-4.256,6.959-2.588,8.627C165.549,170.24,169.873,169.652,173.544,165.982z"/>
<path fill-rule="evenodd" clip-rule="evenodd" d="M142.967,170.901c1.667,1.669,5.994,1.08,9.663-2.588
  c3.669-3.668,3.624-10.699,3.624-10.699s-7.03,0.991-10.699,4.66C141.884,165.943,141.298,169.234,142.967,170.901z"/>
<path fill-rule="evenodd" clip-rule="evenodd" d="M153.414,153.023c3.668-3.67,3.623-10.7,3.623-10.7s-7.028,0.99-10.699,4.661
  c-3.669,3.669-4.256,6.959-2.588,8.627C145.419,157.278,149.744,156.692,153.414,153.023z"/>
<path fill-rule="evenodd" clip-rule="evenodd" d="M125.354,164.34c1.67,1.669,5.995,1.08,9.664-2.588
  c3.669-3.668,3.626-10.699,3.626-10.699s-7.031,0.992-10.702,4.66C124.273,159.382,123.687,162.673,125.354,164.34z"/>
<path fill-rule="evenodd" clip-rule="evenodd" d="M49.536,161.146c1.669,1.669,5.994,1.083,9.665-2.588
  c3.668-3.668,3.623-10.698,3.623-10.698s-7.03,0.99-10.7,4.658C48.455,156.188,47.869,159.479,49.536,161.146z"/>
<path fill-rule="evenodd" clip-rule="evenodd" d="M52.124,135.814c-3.669,3.67-4.255,6.959-2.588,8.627
  c1.669,1.668,5.994,1.082,9.665-2.588c3.668-3.67,3.623-10.699,3.623-10.699S55.794,132.145,52.124,135.814z"/>
<path fill-rule="evenodd" clip-rule="evenodd" d="M29.982,161.146c1.668,1.669,5.994,1.083,9.664-2.588
  c3.669-3.668,3.624-10.698,3.624-10.698s-7.031,0.99-10.7,4.658C28.901,156.188,28.314,159.479,29.982,161.146z"/>
<path fill-rule="evenodd" clip-rule="evenodd" d="M32.57,135.814c-3.669,3.67-4.256,6.959-2.588,8.627
  c1.668,1.668,5.994,1.082,9.664-2.588c3.669-3.67,3.624-10.699,3.624-10.699S36.239,132.145,32.57,135.814z"/>
<polygon fill-rule="evenodd" clip-rule="evenodd" points="10.209,163.034 27.601,122.732 29.351,118.676 47.64,78.329
  41.824,76.361 23.826,116.364 0.345,167.969 "/>
<path fill-rule="evenodd" clip-rule="evenodd" d="M196.912,127.353l-33.279-54.128l21.484-0.693l-1.929-6.216l-76.306,0.448
  l-0.168-10.541l-5.179,1.929l-0.136,8.644l-32.714,0.191l-3.32-0.886l-22.115,0.318l23.827,56.313l15.623,49.406L0,171.229
  l3.452,11.242l88.057-4.66l2.437-5.548l-23.053-62.129L57.669,76.12l43.599-0.886l-1.803,113.963l9.323-1.929l-1.774-112.22
  l47.662-1.536l-40.029,76.923l7.941,0.303l36.543-74.771l49.762,96.569c-0.539,0.731-2.853-0.167-8.636,0.348
  c-5.936,0.528-15.449-0.375-24.151,0.043c-12.935,0.62-43.756-0.29-55.121,0.409c-3.275,5.846-3.275,7.846-3.889,9.013l87.5-3.953
  c9.875,0-0.441,2.061,15.234-6.641"/>
<g>
  <path d="M0.682,195.034h24.651v4H5.432v11.351h18.551v4.001H5.432v12.351h20.051v4H0.682V195.034z"/>
  <path d="M59.233,205.785c-1.001-5.051-5.05-7.601-10.001-7.601c-8.501,0-12.101,7-12.101,14.45c0,8.151,3.6,14.951,12.151,14.951
    c6.25,0,9.851-4.4,10.3-10.301h4.75c-0.9,8.901-6.45,14.301-15.451,14.301c-11.101,0-16.501-8.2-16.501-18.601
    c0-10.351,5.9-18.801,16.901-18.801c7.45,0,13.601,4,14.701,11.601H59.233z"/>
  <path d="M88.231,194.185c11.351,0,17.101,9,17.101,18.7c0,9.701-5.75,18.701-17.101,18.701c-11.351,0-17.101-9-17.101-18.701
    C71.13,203.185,76.88,194.185,88.231,194.185z M88.231,227.586c8.701,0,12.351-7.5,12.351-14.701c0-7.2-3.65-14.7-12.351-14.7
    c-8.7,0-12.351,7.5-12.351,14.7C75.88,220.086,79.531,227.586,88.231,227.586z"/>
  <path d="M112.98,195.034h11.001v26.552h15.801v9.15H112.98V195.034z"/>
  <path d="M147.379,195.034h29.552v9.15H158.38v4.45h16.851v8.501H158.38v4.45h19.101v9.15h-30.102V195.034z"/>
  <path d="M194.93,211.735l-11.751-16.701h12.901l5.4,9.7l5.3-9.7h12.201l-11.451,16.801l12.751,18.901H207.03l-6.1-10.65l-6.3,10.65
    h-12.601L194.93,211.735z"/>
</g>
</svg>
