<?xml version="1.0" standalone="no"?>
<!DOCTYPE svg PUBLIC "-//W3C//DTD SVG 20010904//EN"
 "http://www.w3.org/TR/2001/REC-SVG-20010904/DTD/svg10.dtd">
<svg version="1.0" xmlns="http://www.w3.org/2000/svg"
 width="1268.000000pt" height="1268.000000pt" viewBox="0 0 1268.000000 1268.000000"
 preserveAspectRatio="xMidYMid meet">
<metadata>
Created by potrace 1.11, written by Peter Selinger 2001-2013
</metadata>
<g transform="translate(0.000000,1268.000000) scale(0.100000,-0.100000)"
fill="#000000" stroke="none">
<path d="M3217 11374 c-24 -6 -57 -21 -74 -33 -24 -18 -236 -436 -1041 -2044
-556 -1113 -1014 -2037 -1017 -2055 -9 -54 11 -103 81 -192 59 -75 298 -321
364 -375 70 -57 193 -148 255 -188 238 -153 566 -299 792 -352 182 -43 319
-66 468 -80 70 -6 359 -7 395 -1 14 3 58 7 99 11 41 3 77 7 80 9 3 2 33 7 66
11 32 3 62 8 65 10 4 2 22 7 41 10 194 33 483 137 705 255 249 131 430 266
639 475 230 229 303 339 280 417 -4 13 -431 872 -950 1909 l-943 1887 1040 -2
1040 -1 23 -62 c60 -167 208 -317 377 -383 37 -15 71 -30 75 -33 8 -9 10
-5141 2 -5165 -6 -16 -97 -17 -1440 -17 -1534 -1 -1454 2 -1505 -49 -45 -45
-61 -105 -44 -166 12 -43 59 -96 99 -112 17 -6 1052 -10 3062 -10 2855 0 3037
1 3069 17 62 32 88 69 96 136 10 78 -45 155 -126 176 -20 5 -625 9 -1452 8
l-1418 0 -1 30 c-4 178 0 5147 5 5152 3 4 37 18 74 33 172 67 323 222 381 392
l18 53 1036 1 c571 1 1037 -2 1037 -6 0 -4 -424 -855 -942 -1891 -887 -1773
-942 -1887 -942 -1936 0 -39 7 -61 29 -95 116 -178 433 -476 664 -625 128 -84
156 -99 306 -172 209 -101 444 -183 615 -215 14 -2 36 -7 50 -10 50 -12 185
-30 295 -41 71 -6 341 -6 405 0 86 9 215 25 240 30 177 35 212 43 304 70 309
90 627 252 888 452 130 99 307 270 415 398 100 120 124 166 119 222 -3 29
-289 611 -1016 2064 -556 1113 -1019 2032 -1027 2041 -8 9 -41 25 -72 35 -53
17 -125 18 -1327 18 l-1271 0 -41 -28 c-50 -33 -72 -73 -78 -141 -10 -100 -55
-200 -112 -248 -61 -50 -163 -87 -232 -83 -92 6 -158 34 -222 98 -64 63 -87
118 -102 247 -9 69 -35 108 -96 141 -33 18 -2534 21 -2603 3z m896 -2259 c471
-943 857 -1718 857 -1723 0 -4 -774 -7 -1720 -7 -946 0 -1720 3 -1720 7 0 12
1714 3438 1720 3438 3 0 391 -772 863 -1715z m6000 0 c471 -943 857 -1718 857
-1723 0 -9 -3426 -10 -3435 -1 -6 7 1705 3439 1715 3439 3 0 391 -772 863
-1715z"/>
<path d="M10080 8848 c-46 -40 -153 -109 -210 -135 -138 -63 -320 -93 -580
-94 -360 -2 -584 -105 -765 -350 -64 -87 -152 -280 -169 -370 -33 -182 -48
-331 -33 -345 11 -11 433 -4 622 10 83 7 106 9 215 25 354 53 601 191 756 423
43 63 102 188 120 253 41 145 47 174 68 315 7 44 19 300 14 300 -1 -1 -19 -15
-38 -32z"/>
<path d="M2805 3840 c-145 -22 -153 -24 -280 -72 -247 -94 -414 -269 -523
-548 -24 -62 -68 -233 -77 -300 -27 -209 -27 -582 0 -735 32 -180 70 -306 124
-415 142 -286 397 -462 731 -505 25 -3 61 -8 80 -10 68 -10 286 -6 375 5 180
24 355 88 474 175 43 31 184 178 220 229 33 48 39 62 29 72 -19 17 -305 214
-320 219 -8 3 -32 -20 -58 -56 -128 -176 -299 -265 -522 -273 -171 -6 -319 30
-428 104 -161 109 -246 295 -285 625 -8 61 -8 337 -1 385 3 19 8 58 11 85 12
100 50 235 90 318 83 177 224 282 432 324 59 11 249 5 318 -11 135 -32 253
-108 330 -211 17 -22 34 -44 38 -50 4 -5 14 -19 21 -29 12 -18 18 -15 112 53
54 39 129 93 166 119 37 26 68 51 68 55 1 26 -125 178 -199 240 -113 94 -282
167 -471 202 -53 10 -398 14 -455 5z"/>
<path d="M5075 3836 c-211 -34 -368 -110 -506 -246 -170 -168 -270 -413 -304
-740 -4 -36 -9 -78 -11 -95 -5 -38 -5 -370 0 -410 2 -16 7 -61 11 -100 30
-305 137 -568 298 -728 111 -112 210 -173 351 -216 82 -25 89 -27 221 -46 47
-7 289 -8 325 -1 14 3 42 7 62 10 439 66 725 391 794 901 3 28 8 58 9 67 21
109 21 530 0 637 -2 10 -6 42 -10 72 -16 126 -70 308 -122 414 -33 65 -104
171 -145 215 -121 130 -317 231 -513 265 -76 13 -378 13 -460 1z m380 -377
c28 -6 83 -27 123 -46 129 -63 215 -180 265 -363 43 -155 52 -238 52 -485 0
-281 -14 -405 -66 -568 -79 -247 -275 -379 -549 -371 -199 5 -327 62 -426 189
-55 71 -115 211 -130 305 -3 19 -7 37 -9 40 -2 3 -6 41 -10 85 -4 44 -9 83
-12 87 -6 11 -5 354 2 438 14 175 44 298 97 409 79 166 215 267 384 286 32 4
60 8 62 10 7 6 173 -6 217 -16z"/>
<path d="M0 2550 l0 -1250 788 0 787 0 -1 188 c-1 103 -2 190 -3 194 0 4 -227
7 -503 7 -277 0 -535 0 -574 1 l-71 0 0 360 0 360 489 0 488 0 0 190 0 190
-489 0 -489 0 1 315 0 315 576 0 576 0 0 188 0 187 -788 3 -787 2 0 -1250z"/>
<path d="M6750 2550 l0 -1250 755 0 c712 0 755 1 756 18 1 25 1 290 0 334 l-1
37 -517 0 c-285 0 -530 0 -545 0 l-26 1 1 1055 2 1055 -212 0 -213 0 0 -1250z"/>
<path d="M8665 2553 l0 -1248 788 -3 787 -2 0 194 0 195 -571 0 c-314 -1 -573
1 -575 4 -4 4 -7 524 -4 695 l0 22 490 0 489 0 0 190 0 190 -490 0 -489 0 0
33 c-1 50 -1 518 -1 560 l1 37 575 0 575 0 0 190 0 190 -788 0 -787 0 0 -1247z"/>
<path d="M10603 3788 c6 -15 751 -1178 765 -1194 28 -31 19 -51 -96 -226 -64
-98 -168 -256 -230 -350 -62 -95 -194 -296 -292 -446 l-179 -272 236 2 237 3
289 463 c268 427 291 461 301 440 11 -21 56 -94 241 -393 132 -213 170 -276
180 -293 6 -10 38 -64 73 -120 l63 -102 240 0 c133 0 239 4 237 8 -1 4 -52 85
-113 180 -60 95 -114 180 -120 189 -5 9 -39 62 -75 118 -36 55 -69 109 -75
118 -5 9 -100 157 -209 329 -110 172 -199 317 -199 323 0 6 48 83 106 173 59
89 155 235 213 325 59 89 145 221 192 292 47 72 119 182 160 245 41 63 88 134
104 158 l29 42 -238 0 -238 0 -284 -455 c-156 -251 -287 -453 -290 -450 -3 4
-22 34 -43 68 -70 117 -115 193 -288 477 -96 157 -183 302 -194 322 l-21 38
-244 0 c-190 0 -242 -3 -238 -12z"/>
</g>
</svg>
